<svg xmlns="http://www.w3.org/2000/svg" viewBox="0 0 58.24 58.21"><defs><style>.cls-1{fill:#47b5ff;}</style></defs><g id="Capa_2" data-name="Capa 2"><g id="Capa_1-2" data-name="Capa 1"><g id="Grupo_654" data-name="Grupo 654"><path id="Trazado_1043" data-name="Trazado 1043" class="cls-1" d="M51.18,58.21H7.05l-.32-.1a7.86,7.86,0,0,1-6.46-5.8c-.11-.37-.18-.76-.27-1.15v-39A1.8,1.8,0,0,0,.08,12C1,7.5,4,5.11,8.51,5.11h1.58c0-.64,0-1.21,0-1.77a3.68,3.68,0,0,1,7.32,0c0,.56,0,1.13,0,1.72h2.9c0-.6,0-1.17,0-1.73a3.68,3.68,0,0,1,7.32,0c0,.56,0,1.13,0,1.73h2.9c0-.6,0-1.18,0-1.74A3.43,3.43,0,0,1,32,.78,3.69,3.69,0,0,1,37.9,3.41c0,.55,0,1.11,0,1.67h2.9c0-.6,0-1.18,0-1.74A3.4,3.4,0,0,1,42.21.78a3.67,3.67,0,0,1,5.92,2.63c0,.55,0,1.11,0,1.7H50.3A8,8,0,0,1,58.23,13q0,18.62,0,37.24a8,8,0,0,1-5.9,7.66C52,58,51.57,58.12,51.18,58.21Zm-3-50.91c0,.72,0,1.29,0,1.85a3.46,3.46,0,0,1-1.92,2.9,3.66,3.66,0,0,1-5-1.47,3.56,3.56,0,0,1-.43-1.49c0-.56,0-1.12,0-1.68H37.9c0,.6,0,1.18,0,1.74A3.46,3.46,0,0,1,36,12.05a3.67,3.67,0,0,1-5-1.47,3.56,3.56,0,0,1-.43-1.5c-.05-.55,0-1.11,0-1.67h-2.9c0,.6,0,1.17,0,1.74a3.36,3.36,0,0,1-1.35,2.52,3.68,3.68,0,0,1-6-2.59c0-.55,0-1.11,0-1.67h-2.9c0,.6,0,1.18,0,1.74a3.47,3.47,0,0,1-2,2.92,3.65,3.65,0,0,1-4.94-1.55,3.73,3.73,0,0,1-.41-1.38c0-.57,0-1.15,0-1.76H8.26a5.69,5.69,0,0,0-6,5.39q0,.3,0,.6V49.92a5.7,5.7,0,0,0,5.37,6,4.85,4.85,0,0,0,.66,0H49.92a5.68,5.68,0,0,0,6-5.35,3.64,3.64,0,0,0,0-.66V13.19a5.58,5.58,0,0,0-4.31-5.62,25.66,25.66,0,0,0-3.5-.27Zm-33-1c0-.83,0-1.66,0-2.5a1.42,1.42,0,1,0-2.83-.22,1,1,0,0,0,0,.24q0,2.41,0,4.83a1.43,1.43,0,1,0,2.84.28,1.09,1.09,0,0,0,0-.31c0-.77,0-1.54,0-2.32Zm10.24-.06c0-.77,0-1.55,0-2.33a2.08,2.08,0,0,0-.14-.82,1.37,1.37,0,0,0-1.54-.8,1.39,1.39,0,0,0-1.14,1.43c0,1.62,0,3.25,0,4.88a1.44,1.44,0,0,0,1.25,1.61H24c.84,0,1.39-.64,1.4-1.65,0-.78,0-1.55,0-2.33Zm10.24,0c0-.77,0-1.55,0-2.32a2.54,2.54,0,0,0-.14-.83A1.38,1.38,0,0,0,34,2.29a1.4,1.4,0,0,0-1.14,1.43c0,1.62,0,3.25,0,4.88a1.44,1.44,0,0,0,1.25,1.61h.18c.85,0,1.39-.64,1.4-1.65,0-.78,0-1.55,0-2.33Zm10.23,0c0-.8,0-1.59,0-2.39a1.41,1.41,0,0,0-1.22-1.6,1.44,1.44,0,0,0-1.61,1.23,2,2,0,0,0,0,.35q0,2.39,0,4.77A1.42,1.42,0,0,0,45.89,9a1.61,1.61,0,0,0,0-.31c0-.79,0-1.59,0-2.38Z"/><path id="Trazado_1044" data-name="Trazado 1044" class="cls-1" d="M29.06,53.1H8.36a2.88,2.88,0,0,1-3.24-3.22V18.56a2.89,2.89,0,0,1,3.23-3.22h5.18c.83,0,1.35.43,1.37,1.11s-.52,1.16-1.38,1.16H8.28c-.71,0-.89.17-.89.85V50c0,.69.18.86.89.86H50c.72,0,.88-.17.88-.92V18.58c0-.83-.13-1-1-1H24.47c-1.07,0-1.62-.4-1.6-1.17s.54-1.11,1.6-1.11H49.94a2.88,2.88,0,0,1,3.18,2.54,3.21,3.21,0,0,1,0,.62V49.89a2.88,2.88,0,0,1-2.52,3.2,3,3,0,0,1-.67,0Z"/><path id="Trazado_1045" data-name="Trazado 1045" class="cls-1" d="M34.36,44.51a10.24,10.24,0,0,1-1.06-.37c-1.24-.59-2.47-1.22-3.73-1.8a1.08,1.08,0,0,0-.77,0c-1.3.58-2.58,1.2-3.85,1.82A2.12,2.12,0,0,1,22.59,44a2.16,2.16,0,0,1-.8-2.27c.23-1.36.41-2.73.58-4.1a.94.94,0,0,0-.24-.64c-1-1-1.93-2.08-2.92-3.1a2.12,2.12,0,0,1,1.17-3.72c1.33-.22,2.64-.49,4-.68a1.08,1.08,0,0,0,.88-.67c.63-1.19,1.29-2.35,1.92-3.54A2.15,2.15,0,0,1,30,24.17a2.08,2.08,0,0,1,1.15,1.18c.61,1.17,1.26,2.33,1.85,3.51a1,1,0,0,0,.82.59c1.4.24,2.79.52,4.18.77a2.11,2.11,0,0,1,1.78,2.4,2.08,2.08,0,0,1-.62,1.21c-1,1-1.92,2-2.89,3a.94.94,0,0,0-.32.89c.22,1.4.38,2.82.57,4.22a2.22,2.22,0,0,1-1.81,2.56A1.55,1.55,0,0,1,34.36,44.51ZM29.12,26.45c-.82,1.51-1.59,2.9-2.34,4.3a1.5,1.5,0,0,1-1.19.85c-.72.11-1.45.24-2.18.37l-2.49.45c1.15,1.21,2.2,2.35,3.29,3.46a1.6,1.6,0,0,1,.5,1.53c-.15.76-.23,1.54-.34,2.3s-.19,1.48-.3,2.3l.57-.23c1.2-.57,2.4-1.11,3.58-1.72a1.9,1.9,0,0,1,1.93,0c1.15.61,2.33,1.16,3.51,1.73.14.07.29.12.49.2,0-.29,0-.5,0-.7-.17-1.3-.34-2.59-.53-3.88a1.75,1.75,0,0,1,.54-1.69c.64-.59,1.22-1.24,1.83-1.87l1.38-1.44c-1.62-.3-3.14-.61-4.67-.86a1.73,1.73,0,0,1-1.38-1C30.6,29.19,29.88,27.89,29.12,26.45Z"/><path id="Trazado_1046" data-name="Trazado 1046" class="cls-1" d="M20,16.45a1.13,1.13,0,1,1-1.16-1.1h0A1.14,1.14,0,0,1,20,16.45Z"/></g></g></g></svg>