<svg xmlns="http://www.w3.org/2000/svg" viewBox="0 0 67.02 67.01"><defs><style>.cls-1{fill:#47b5ff;}</style></defs><g id="Capa_2" data-name="Capa 2"><g id="Capa_1-2" data-name="Capa 1"><g id="Grupo_324" data-name="Grupo 324"><path id="Trazado_374" data-name="Trazado 374" class="cls-1" d="M0,27.22c.1-.35.18-.71.29-1.06a6.62,6.62,0,0,1,6.18-4.7c1.13,0,2.26,0,3.48,0,0-.57,0-1.08,0-1.6a4.71,4.71,0,0,1,9.42,0c0,.5,0,1,0,1.58h.8c1.94,0,3.88,0,5.82,0a1.27,1.27,0,0,0,1.29-.72c1.28-2.25,2.63-4.46,3.93-6.71a1.73,1.73,0,0,1,1.68-1q8.73,0,17.47,0A1.7,1.7,0,0,1,52,14c1.35,2.32,2.73,4.62,4.08,6.93a.92.92,0,0,0,.92.54,33,33,0,0,1,4.56.13A6.47,6.47,0,0,1,67,27.88c0,1.72,0,3.44,0,5.17V59.94a6.67,6.67,0,0,1-6.25,7,5.34,5.34,0,0,1-.8,0H7.29C3.36,67,1,65.15.08,61.35c0,0,0-.07-.08-.1Zm33.57-3.15H7a4,4,0,0,0-4.39,3.64,4.7,4.7,0,0,0,0,.75V60a4.07,4.07,0,0,0,3.71,4.38,3.53,3.53,0,0,0,.65,0H60a4.05,4.05,0,0,0,4.36-3.72q0-.33,0-.66V28.46a4,4,0,0,0-3.64-4.39,4.69,4.69,0,0,0-.75,0Zm19.77-2.64c-1.12-1.91-2.18-3.71-3.26-5.5a.83.83,0,0,0-.6-.22c-5.23,0-10.47,0-15.7,0a.75.75,0,0,0-.76.46c-.93,1.6-1.88,3.19-2.82,4.79-.08.14-.14.3-.23.49Zm-36.6,0c0-.65,0-1.24,0-1.82A2.08,2.08,0,0,0,15,17.8a2,2,0,0,0-2.24,1.4,14,14,0,0,0-.18,2.24Z"/><path id="Trazado_375" data-name="Trazado 375" class="cls-1" d="M41.88,0a1.61,1.61,0,0,1,1.06,1.74c0,2.16,0,4.31,0,6.46a1.29,1.29,0,0,1-1.17,1.4,1.31,1.31,0,0,1-1.43-1.26q0-3.52,0-7c0-.69.47-1,1-1.29Z"/><path id="Trazado_376" data-name="Trazado 376" class="cls-1" d="M29.3,3.74a1.35,1.35,0,0,1,.77-1.41,1.2,1.2,0,0,1,1.39.22c.62.58,1.21,1.19,1.81,1.79,1,1,1.92,1.9,2.87,2.86a1.38,1.38,0,0,1,.27,1.92l-.08.1c-.57.58-1.36.51-2.07-.19-1.48-1.47-3-2.94-4.42-4.44A3.6,3.6,0,0,1,29.3,3.74Z"/><path id="Trazado_377" data-name="Trazado 377" class="cls-1" d="M46.56,8.1a3.18,3.18,0,0,1,.49-.81c1.5-1.54,3-3.06,4.56-4.58a1.32,1.32,0,0,1,1.86-.2.48.48,0,0,1,.11.09,1.33,1.33,0,0,1,0,1.89l-.08.08L48.88,9.14A1.33,1.33,0,0,1,47,9.3a1.31,1.31,0,0,1-.45-1.21Z"/><path id="Trazado_378" data-name="Trazado 378" class="cls-1" d="M42.09,27.74c9,0,16.49,7.9,16,17.36a16.5,16.5,0,0,1-32.95-1.8,16,16,0,0,1,1.14-5.15c.37-.91,1-1.27,1.76-1s1,1,.67,2a13.87,13.87,0,1,0,18-7.76,14.1,14.1,0,0,0-6.23-.94,25,25,0,0,0-4.17,1,1.39,1.39,0,0,1-1.55-.35,1.14,1.14,0,0,1-.17-1.4,2,2,0,0,1,.87-.72A16.2,16.2,0,0,1,42.09,27.74Z"/><path id="Trazado_379" data-name="Trazado 379" class="cls-1" d="M41.65,33.5A10.73,10.73,0,1,1,30.89,44.2h0A10.72,10.72,0,0,1,41.65,33.5Zm0,2.61a8.12,8.12,0,1,0,8.12,8.11h0a8.13,8.13,0,0,0-8.12-8.1Z"/><path id="Trazado_380" data-name="Trazado 380" class="cls-1" d="M14.71,32.19H18a1.3,1.3,0,0,1,0,2.6q-3.33,0-6.66,0A1.31,1.31,0,0,1,10,33.55a.28.28,0,0,1,0-.09,1.3,1.3,0,0,1,1.32-1.28h3.44Z"/><path id="Trazado_381" data-name="Trazado 381" class="cls-1" d="M30.89,32.19a1.29,1.29,0,1,1-1.31,1.27A1.3,1.3,0,0,1,30.89,32.19Z"/><path id="Trazado_382" data-name="Trazado 382" class="cls-1" d="M46.77,44a1.31,1.31,0,1,1-2.57.47,1.64,1.64,0,0,1,0-.22,2.56,2.56,0,0,0-2.55-2.58h0a1.3,1.3,0,0,1-1.28-1.32v0a1.34,1.34,0,0,1,1.44-1.23h0A5.17,5.17,0,0,1,46.77,44Z"/></g></g></g></svg>