<svg xmlns="http://www.w3.org/2000/svg" viewBox="0 0 67.39 68.5"><defs><style>.cls-1{fill:#47b5ff;}</style></defs><g id="Capa_2" data-name="Capa 2"><g id="Capa_1-2" data-name="Capa 1"><g id="Grupo_354" data-name="Grupo 354"><path id="Trazado_439" data-name="Trazado 439" class="cls-1" d="M37.06,59.52c.8,0,1.5,0,2.2,0a1,1,0,0,1,1.13.93.15.15,0,0,1,0,.07,16.58,16.58,0,0,1-.06,3.15,5.52,5.52,0,0,1-5.71,4.82q-14.42,0-28.83,0a6.75,6.75,0,0,1-1.19-.1A5.58,5.58,0,0,1,0,63c0-.73,0-1.45,0-2.18a1.15,1.15,0,0,1,1.31-1.28c.65,0,1.31,0,2.06,0V36.43c0-1.29.32-1.62,1.61-1.62h9.75a1.18,1.18,0,0,1,1.27.77c.28.8-.29,1.48-1.25,1.48H5.67V59.48H34.82V48.74c0-.76.31-1.2.9-1.31.78-.14,1.34.38,1.34,1.28,0,3.32,0,6.65,0,10ZM10.14,66.21H30.28c.13-1.73.36-2.16,1.11-2.2s1,.36,1.24,2.17c3.8.58,6.27-1.42,5.44-4.38H2.25c0,.4,0,.77,0,1.14a3.32,3.32,0,0,0,2.9,3.27,26.42,26.42,0,0,0,2.67,0,8.41,8.41,0,0,1,.11-1.42A1,1,0,0,1,9,64C9.8,64,10,64.48,10.14,66.21Z"/><path id="Trazado_440" data-name="Trazado 440" class="cls-1" d="M33.68,27.55,19.6,39.16,22,43.23c.17.3.36.6.52.91a1.12,1.12,0,1,1-1.91,1.17l0-.07c-.85-1.43-1.66-2.87-2.5-4.31l-.31-.52c-1.43.86-2.88,1.64-4.23,2.58A2,2,0,0,0,13,45.67c.72,1.31,1.46,2.61,2.24,3.88a2.1,2.1,0,0,0,2.83.88l.16-.09c4.56-3,9.77-4.49,14.79-6.44,2.72-1.06,5.46-2.06,8.24-3.11l-2.08-3.61c-.93-1.62-1.9-3.22-2.78-4.87a1.47,1.47,0,0,1,0-1.28,1.53,1.53,0,0,1,1.14-.4c.24,0,.57.31.72.57q2.79,4.74,5.5,9.53c.46.8.17,1.42-.8,1.78L32.16,46.6l-5.68,2.14c.71,1.24,1.41,2.42,2.07,3.63a3.35,3.35,0,0,1-.59,4,3.25,3.25,0,0,1-3.88.57,4.7,4.7,0,0,1-1.46-1.45c-.76-1.15-1.4-2.38-2.1-3.57l-.1-.09a14.73,14.73,0,0,1-1.89.88,4.13,4.13,0,0,1-4-.75.74.74,0,0,0-1-.07,7,7,0,0,1-2.07.75,3.31,3.31,0,0,1-2.07-6.07,1.92,1.92,0,0,0,1.2-2.13,3.94,3.94,0,0,1,1.82-3.52.66.66,0,0,1,.17-.12c5.17-2.53,9.28-6.5,13.69-10.07C28.52,28.91,30.74,27,33,25.2c.93-.77,1.56-.67,2.16.35.31.53.62,1.05.91,1.58a1.13,1.13,0,0,1-.31,1.56,1.12,1.12,0,0,1-1.56-.31.53.53,0,0,1-.06-.1ZM22.38,50.67c.79,1.35,1.51,2.65,2.28,3.92a1,1,0,0,0,1.41.4,1,1,0,0,0,.58-1.32v0c-.73-1.38-1.53-2.7-2.32-4.09ZM11.64,47.79c-.64.45-1.54.58-1.5,1.53a1.32,1.32,0,0,0,.56,1c.79.46,1.37-.16,2.06-.56Z"/><path id="Trazado_441" data-name="Trazado 441" class="cls-1" d="M57.25,1.12c2.2,0,4.4,0,6.6,0a3.35,3.35,0,0,1,3.53,3.17v.36q0,6.55,0,13.12a3.37,3.37,0,0,1-3.15,3.56,2.94,2.94,0,0,1-.42,0H50.76a3.37,3.37,0,0,1-3.59-3.14,3.53,3.53,0,0,1,0-.46c0-2.13,0-4.26,0-6.39a1.12,1.12,0,0,1,1-1.22h.13a1.13,1.13,0,0,1,1.1,1.17v0c0,.17,0,.33,0,.49v5.83c0,1.06.38,1.45,1.43,1.45H63.68c1.06,0,1.45-.39,1.45-1.43V4.82c0-1.06-.38-1.45-1.42-1.45H50.8c-1,0-1.38.4-1.39,1.41,0,.63,0,1.27,0,1.9a1.12,1.12,0,1,1-2.23.1.57.57,0,0,1,0-.13c0-.72,0-1.45,0-2.17a3.34,3.34,0,0,1,3.34-3.35h0C52.76,1.1,55,1.12,57.25,1.12Z"/><path id="Trazado_442" data-name="Trazado 442" class="cls-1" d="M47.16,46V39.52a3.38,3.38,0,0,1,3.15-3.59H63.75A3.37,3.37,0,0,1,67.37,39a3.68,3.68,0,0,1,0,.47q0,3.14,0,6.25c0,.88-.42,1.4-1.12,1.4s-1.12-.52-1.12-1.4V39.58c0-1-.4-1.4-1.4-1.4H50.82c-1,0-1.41.39-1.41,1.4V52.49c0,1,.39,1.41,1.4,1.42H63.72c1,0,1.4-.4,1.41-1.4,0-.63,0-1.26,0-1.89a1.12,1.12,0,1,1,2.23-.16v.14c0,.79,0,1.59,0,2.38a3.28,3.28,0,0,1-3.17,3.15q-6.91.06-13.82,0a3.29,3.29,0,0,1-3.2-3.34C47.15,50.54,47.16,48.29,47.16,46Z"/><path id="Trazado_443" data-name="Trazado 443" class="cls-1" d="M0,21.33V12.7c0-1.1.37-1.47,1.47-1.47H14.25c1.1,0,1.47.37,1.47,1.47V30c0,1.1-.37,1.48-1.47,1.48H1.48C.38,31.44,0,31.07,0,30Zm2.28,7.82H13.43V13.52H2.29Z"/><path id="Trazado_444" data-name="Trazado 444" class="cls-1" d="M28.08,20.21a10.11,10.11,0,1,1,10.1-10.14,10.11,10.11,0,0,1-10.1,10.14Zm0-2.25a7.86,7.86,0,1,0-7.85-7.87v.09A7.87,7.87,0,0,0,28.06,18Z"/><path id="Trazado_445" data-name="Trazado 445" class="cls-1" d="M61.76,46.05a4.49,4.49,0,1,1-4.5-4.5,4.5,4.5,0,0,1,4.5,4.5Zm-4.52,2.23A2.24,2.24,0,1,0,55,46v0A2.25,2.25,0,0,0,57.24,48.28Z"/><path id="Trazado_446" data-name="Trazado 446" class="cls-1" d="M57.27,10.08c1.75.08,2.22.33,2.24,1.12s-.46,1.07-2.24,1.19v3.18a1.14,1.14,0,0,1-.92,1.24,1.1,1.1,0,0,1-1.3-.87,1,1,0,0,1,0-.29c0-1.07,0-2.15,0-3.26-.92-.14-2.23.27-2.21-1.19s1.28-1,2.21-1.13c0-.43,0-.82,0-1.21A3.36,3.36,0,0,1,58.2,5.62c.79,0,1.59,0,2.38,0a1.11,1.11,0,0,1,1.17,1,.27.27,0,0,1,0,.09,1.13,1.13,0,0,1-1.15,1.1H58.79c-1.18,0-1.52.36-1.52,1.56Z"/><path id="Trazado_447" data-name="Trazado 447" class="cls-1" d="M46.12,33.69a1.2,1.2,0,0,1-1.31-1,1.13,1.13,0,0,1,1-1.24l5.43-1.1a1.18,1.18,0,0,1,1.51.7l0,.12c.16.7-.23,1.24-1.07,1.42l-5.22,1.06Z"/><path id="Trazado_448" data-name="Trazado 448" class="cls-1" d="M39.48,24.7c-1,0-1.62-.94-1.14-1.64,1.13-1.62,2.33-3.2,3.56-4.75a1,1,0,0,1,1.36-.17.27.27,0,0,1,.08.07,1,1,0,0,1,.33,1.35.18.18,0,0,1-.05.07c-1.14,1.59-2.32,3.15-3.52,4.7A1.63,1.63,0,0,1,39.48,24.7Z"/><path id="Trazado_449" data-name="Trazado 449" class="cls-1" d="M48.45,24.68a4.68,4.68,0,0,1-.69,1c-1.44,1.12-2.89,2.2-4.36,3.28a1.13,1.13,0,0,1-1.58-.11,1.14,1.14,0,0,1,.11-1.59l.17-.12,4.3-3.23a1,1,0,0,1,1.29-.12A5.23,5.23,0,0,1,48.45,24.68Z"/><path id="Trazado_450" data-name="Trazado 450" class="cls-1" d="M7.86,22.46c-.72,0-1.45,0-2.17,0a1.12,1.12,0,0,1-1.19-1,1.11,1.11,0,0,1,1-1.19h.15q2.17,0,4.35,0a1.12,1.12,0,1,1,.15,2.23H10C9.31,22.47,8.59,22.46,7.86,22.46Z"/><path id="Trazado_451" data-name="Trazado 451" class="cls-1" d="M7.89,24.7H10a1.12,1.12,0,0,1,.21,2.24H10c-1.42,0-2.85,0-4.27,0A1.13,1.13,0,0,1,5.5,24.7H7.89Z"/><path id="Trazado_452" data-name="Trazado 452" class="cls-1" d="M9,18c-.37,0-.75,0-1.12,0a1.1,1.1,0,0,1-1.09-1.13h0a1.09,1.09,0,0,1,1.07-1.09q1.15,0,2.31,0a1.11,1.11,0,0,1,1.1,1.11v0A1.12,1.12,0,0,1,10.15,18C9.76,18,9.36,18,9,18Z"/><path id="Trazado_453" data-name="Trazado 453" class="cls-1" d="M26,5.62q.27.09.54.21L32.85,9a1.16,1.16,0,0,1,0,2.22c-2.11,1-4.22,2.12-6.33,3.16-1.05.52-1.82,0-1.82-1.14q0-3.15,0-6.31a1.17,1.17,0,0,1,1-1.29Zm4.07,4.48L27,8.57v3.06Z"/></g></g></g></svg>