<svg xmlns="http://www.w3.org/2000/svg" viewBox="0 0 68.11 70.53"><defs><style>.cls-1{fill:#47b5ff;}</style></defs><g id="Capa_2" data-name="Capa 2"><g id="Capa_1-2" data-name="Capa 1"><g id="Grupo_325" data-name="Grupo 325"><path id="Trazado_383" data-name="Trazado 383" class="cls-1" d="M55.29,0a2,2,0,0,1,1,2.27c1.86.26,2.36.59,2.34,1.48s-.51,1.17-2.1,1.39a17.38,17.38,0,0,1-.78,2c-.12.21-.57.31-.87.32-.89,0-1.2-.5-1.38-2.07a17.69,17.69,0,0,1-2-.83c-.2-.11-.28-.57-.28-.87,0-.9.54-1.22,2.32-1.35-.06-.91-.05-1.84,1-2.3Z"/><path id="Trazado_384" data-name="Trazado 384" class="cls-1" d="M7.21,49.27l-3.93,6.8,4.09,2.36a1.49,1.49,0,0,1,.89,1.21,1.36,1.36,0,0,1-1.21,1.48,1.35,1.35,0,0,1-.81-.18c-.92-.47-1.8-1-2.69-1.53L1,57.93a1.47,1.47,0,0,1-.9-1.86,1.32,1.32,0,0,1,.29-.48q2.46-4.28,4.93-8.52c.67-1.16,1.28-1.33,2.42-.68l.59.32c1.28-1.28,2.57-2.55,3.84-3.84A17.83,17.83,0,0,1,24.9,37.35a12.93,12.93,0,0,1,8.55,3,2.09,2.09,0,0,0,1.16.41c2.48,0,5,.1,7.45,0a5.2,5.2,0,0,1,5.11,7.19,2.87,2.87,0,0,0-.05.31c.62-.13,1.2-.23,1.76-.39a12.9,12.9,0,0,0,5.75-3.38c1.5-1.5,3-3,4.5-4.47a5.25,5.25,0,0,1,7.43.11,5.19,5.19,0,0,1,1.34,2.45,4.57,4.57,0,0,1-1,4.46c-2.93,3-5.7,6.27-9.16,8.74a20.48,20.48,0,0,1-11.87,3.85c-5,.07-10.08,0-15.11,0h-.7a12,12,0,0,1-.65,1.52c-1.59,2.79-3.2,5.56-4.81,8.34-.67,1.15-1.29,1.31-2.44.65l-5-2.89a1.38,1.38,0,0,1-.85-1.5,1.36,1.36,0,0,1,1.54-1.16,1.37,1.37,0,0,1,.58.22c1.22.67,2.43,1.39,3.64,2.09l.64.35,3.93-6.78Zm3.61-1.13.31.21q7.23,4.17,14.45,8.31a1.79,1.79,0,0,0,.91.21c6.3,0,12.6,0,18.9,0a18.38,18.38,0,0,0,13-5.16c2.07-2,4.06-4,6.07-6a2.53,2.53,0,0,0,.22-3.56L64.55,42a2.56,2.56,0,0,0-3.62.07l-.07.08-4.2,4.19a15.83,15.83,0,0,1-11.59,4.77H32.58c-.25,0-.51,0-.76,0a1.37,1.37,0,0,1,0-2.74c.2,0,.41,0,.62,0H42a4.49,4.49,0,0,0,.89-.06,2.42,2.42,0,0,0,1.89-2.66,2.38,2.38,0,0,0-2.41-2.11q-4.28,0-8.55,0a2.33,2.33,0,0,1-1.74-.66,9.81,9.81,0,0,0-4.89-2.53,13.7,13.7,0,0,0-6.33.37C16.54,41.84,13.79,45.11,10.82,48.14Z"/><path id="Trazado_385" data-name="Trazado 385" class="cls-1" d="M49.91,24.3c.78,2.37,1.55,4.67,2.29,7a2.87,2.87,0,0,1-4.47,3.3c-1.82-1.33-3.64-2.64-5.45-4a.73.73,0,0,0-1,0l0,0c-1.84,1.38-3.69,2.74-5.57,4.06a2.82,2.82,0,0,1-4-.51,2.79,2.79,0,0,1-.59-1.54,4.11,4.11,0,0,1,.24-1.48q1-3.15,2.06-6.27a.67.67,0,0,0-.29-.9h0c-1.89-1.35-3.78-2.7-5.64-4.08a2.82,2.82,0,0,1-.75-3.92,3.29,3.29,0,0,1,.33-.41,3,3,0,0,1,2.32-.85c2.19,0,4.37,0,6.55,0a.9.9,0,0,0,1-.74v0c.66-2.15,1.35-4.28,2.07-6.41a2.82,2.82,0,0,1,3.51-1.89l.13,0a2.89,2.89,0,0,1,1.88,2c.67,2.12,1.39,4.23,2,6.35a.77.77,0,0,0,.89.65h0c2.39,0,4.78,0,7.17,0a2.54,2.54,0,0,1,2.41,1.85,2.72,2.72,0,0,1-.72,3,5.2,5.2,0,0,1-.65.51l-5.14,3.71Zm4.54-6.69-.07-.18h-8c-1.42,0-1.67-.18-2.12-1.55L42,8.94c-.08-.22-.17-.43-.3-.8l-.27.76c-.78,2.4-1.55,4.8-2.33,7.19-.35,1.09-.7,1.34-1.86,1.34H29.75c-.23,0-.46,0-.86.05.35.27.52.41.71.54l6,4.32c1,.75,1.16,1.14.77,2.34q-1.16,3.48-2.3,7c-.08.23-.13.47-.24.89l.76-.53,6-4.38c1-.7,1.34-.7,2.28,0q3.08,2.22,6.13,4.46l.68.46c-.12-.41-.18-.64-.26-.88l-2.35-7.18a1.45,1.45,0,0,1,.58-2l.06,0L52,19.41l2.49-1.8Z"/><path id="Trazado_386" data-name="Trazado 386" class="cls-1" d="M21.15,28.43c-.18,1.8-.48,2.29-1.37,2.31s-1.26-.44-1.51-2.31c-1,0-2.17.06-2.26-1.4,0-.88.49-1.19,2.09-1.42a15,15,0,0,1,.79-1.95,1.07,1.07,0,0,1,.86-.32c1.42.12,1.37,1.23,1.36,2.23,1.94.34,2.38.61,2.32,1.5C23.32,28.51,22.19,28.41,21.15,28.43Z"/><path id="Trazado_387" data-name="Trazado 387" class="cls-1" d="M13.64,62.84a1.33,1.33,0,0,1-1.3,1.37h0a1.37,1.37,0,0,1-1.4-1.34v0a1.4,1.4,0,0,1,1.38-1.36A1.37,1.37,0,0,1,13.64,62.84Z"/></g></g></g></svg>