<svg xmlns="http://www.w3.org/2000/svg" viewBox="0 0 62.76 62.77"><defs><style>.cls-1{fill:#47b5ff;}</style></defs><g id="Capa_2" data-name="Capa 2"><g id="Capa_1-2" data-name="Capa 1"><g id="Grupo_353" data-name="Grupo 353"><path id="Trazado_433" data-name="Trazado 433" class="cls-1" d="M3.06,62.77l-.57-.2A3.67,3.67,0,0,1,0,59.19v-55C0,1.48,1.46,0,4.12,0H36.05a2.2,2.2,0,0,1,1.68.69q5.55,5.6,11.14,11.14a2.12,2.12,0,0,1,.67,1.63c0,5.13,0,10.25,0,15.38a3.72,3.72,0,0,1,0,.67,1.22,1.22,0,0,1-2.41-.07c0-.2,0-.41,0-.61V14.23H39.22a3.67,3.67,0,0,1-3.91-3.44,3.84,3.84,0,0,1,0-.48q0-3.55,0-7.11V2.46H4.09c-1.25,0-1.63.39-1.63,1.66V58.67c0,1.26.38,1.65,1.63,1.65H14.22V50.94c0-1.18.41-1.6,1.57-1.6q3.59,0,7.17,0c1.14,0,1.56.43,1.56,1.56v9.4H27V43.92c0-1.21.4-1.6,1.63-1.61h7.11c1.13,0,1.56.42,1.56,1.55V60.3h2.45V35.39c0-1.27.38-1.66,1.63-1.66h7.11c1.13,0,1.56.43,1.56,1.56v25h2.45v-18A1.26,1.26,0,0,1,53.67,41h0a1.24,1.24,0,0,1,1.2,1.29h0c0,.84,0,1.68,0,2.52V60.27h5.36V28.1H54.91c0,1.61,0,3.2,0,4.79a1.21,1.21,0,0,1-1,1.32,1.18,1.18,0,0,1-1.39-.93,1,1,0,0,1,0-.24q0-3.12,0-6.25a1.15,1.15,0,0,1,1.11-1.18h8a1.36,1.36,0,0,1,1.21.87V62.77ZM42.2,60.29h5.32V36.22H42.2Zm-7.43,0V44.8H29.45V60.3ZM22,60.29V51.81H16.7v8.48ZM45.14,11.77,37.77,4.41c0,2.07,0,4.18,0,6.3a1.09,1.09,0,0,0,1.09,1c2.09,0,4.19,0,6.27,0Z"/><path id="Trazado_434" data-name="Trazado 434" class="cls-1" d="M29.09,22.57A11.29,11.29,0,1,1,16.63,10.12V8.27c0-1.15.41-1.55,1.54-1.53a14.62,14.62,0,0,1,14.21,13c.06.53.09,1.06.1,1.59a1.2,1.2,0,0,1-1.11,1.28H29.09Zm-2.56,0H18.2c-1.18,0-1.57-.39-1.57-1.58q0-3.82,0-7.66v-.65a8.78,8.78,0,1,0,9.9,9.89ZM19.12,9.27V20.08H29.91A12,12,0,0,0,19.12,9.28Z"/><path id="Trazado_435" data-name="Trazado 435" class="cls-1" d="M19.56,38.52H8.36a5,5,0,0,1-.67,0,1.2,1.2,0,0,1-1.06-1.1,1.18,1.18,0,0,1,.81-1.23,3,3,0,0,1,.84-.1h23a1.25,1.25,0,0,1,1.25,1.25,1.2,1.2,0,0,1-1.21,1.19H19.56Z"/><path id="Trazado_436" data-name="Trazado 436" class="cls-1" d="M11.8,42h3.67c.9,0,1.45.49,1.44,1.23a1.24,1.24,0,0,1-1.27,1.22h-.13q-3.75,0-7.48,0a1.24,1.24,0,0,1-1.41-1.27c0-.72.56-1.16,1.44-1.17Z"/><path id="Trazado_437" data-name="Trazado 437" class="cls-1" d="M54.91,37.4a1.22,1.22,0,1,1-1.2-1.24,1.21,1.21,0,0,1,1.2,1.24Z"/><path id="Trazado_438" data-name="Trazado 438" class="cls-1" d="M23.05,43.22a1.23,1.23,0,0,1-2.45,0A1.23,1.23,0,0,1,21.81,42h0A1.22,1.22,0,0,1,23.05,43.22Z"/></g></g></g></svg>