<svg xmlns="http://www.w3.org/2000/svg" viewBox="0 0 64.64 64.77"><defs><style>.cls-1{fill:#47b5ff;}</style></defs><g id="Capa_2" data-name="Capa 2"><g id="Capa_1-2" data-name="Capa 1"><g id="Grupo_653" data-name="Grupo 653"><path id="Trazado_1040" data-name="Trazado 1040" class="cls-1" d="M57.34,31v.89c0,7.68,0,15.37,0,23A2.29,2.29,0,0,0,58,56.7a4.7,4.7,0,0,1,0,6.64,4.64,4.64,0,0,1-2,1.21,8.18,8.18,0,0,1-2.26.21q-22.53,0-45.07,0c-1.07,0-1.4-.33-1.4-1.4V31L5.55,32.57c-.21.18-.41.38-.63.56a1,1,0,0,1-1.44,0l-.08-.09c-1-1-2-2-3-3-.55-.58-.47-1.14.2-1.74q4.5-4.07,9-8.12L29.63,2.12c.65-.58,1.31-1.14,2-1.7s1-.56,1.63,0l9.25,8.35,2.3,2.07c0-.27,0-.45,0-.63V5.48c0-.93.37-1.3,1.31-1.3H56c.93,0,1.3.37,1.3,1.31q0,8,0,16.06a1.3,1.3,0,0,0,.5,1.11c2.06,1.83,4.1,3.69,6.15,5.54.86.77.88,1.26.08,2.06S62.31,32,61.43,32.89c-.71.72-1.15.73-1.9.07Zm-25-22.27c-.1.08-.18.12-.24.18L9.76,28.81a1.11,1.11,0,0,0-.37,1V62.65H50.58c-.22-.23-.37-.41-.53-.57l-7.51-7.53c-1-1-1.06-1.14-.32-2.33l-2.16-2.17a14.69,14.69,0,1,1,4.71-4.78L47,47.51c.94-.7,1.25-.68,2.13.2l5.62,5.64c.14.14.3.28.54.5V53q0-11.6,0-23.18a1.36,1.36,0,0,0-.51-1.16q-9.11-8.07-18.17-16.17ZM2.61,29.26l1.65,1.65.49-.42L31.33,6.81c.79-.7,1.18-.73,1.91-.08l20,17.82,7.1,6.33,1.71-1.61L32.33,2.45Zm42.22,8.37A12.51,12.51,0,1,0,32.31,50.15,12.5,12.5,0,0,0,44.83,37.63ZM46.92,6.3c0,2.11,0,4.17,0,6.24a.94.94,0,0,0,.34.57q3.73,3.41,7.49,6.77a5,5,0,0,0,.46.35V6.3ZM44.3,53.35l4.18,4.2c1.46,1.46,2.9,2.93,4.38,4.37a2.48,2.48,0,0,0,2.64.63,2.52,2.52,0,0,0,1.78-2A2.64,2.64,0,0,0,56.44,58Q52.36,54,48.29,49.87a2,2,0,0,0-.28-.23Zm-.83-6.12-1.53,1.44,1.88,1.86,1.5-1.47Z"/><path id="Trazado_1041" data-name="Trazado 1041" class="cls-1" d="M21.9,37.57A10.43,10.43,0,1,1,32.27,48.06h0A10.45,10.45,0,0,1,21.9,37.57Zm10.41-8.32a8.36,8.36,0,1,0,8.36,8.37v0a8.38,8.38,0,0,0-8.36-8.33Z"/><path id="Trazado_1042" data-name="Trazado 1042" class="cls-1" d="M31.32,31.37h2s.08.07.08.1a1.43,1.43,0,0,0,.84,1.59,2.83,2.83,0,0,1,1.27,2.42h-2l-.16-.4a1,1,0,0,0-2,.5,1,1,0,0,0,.9,1c.32.06.65.05,1,.14a3,3,0,0,1,2.25,2.53,2.81,2.81,0,0,1-1.35,3,1.17,1.17,0,0,0-.69,1.33,1.26,1.26,0,0,1,0,.27H31.38s-.08-.07-.07-.1a1.45,1.45,0,0,0-.84-1.59,2.75,2.75,0,0,1-1.27-2.41h2c.06.15.12.3.19.45a1,1,0,0,0,1.4.42,1.06,1.06,0,0,0,.54-.92,1,1,0,0,0-.84-1c-.34-.08-.7-.06-1-.16A3,3,0,0,1,29.25,36a2.79,2.79,0,0,1,1.35-3,1.2,1.2,0,0,0,.69-1.33A1.24,1.24,0,0,1,31.32,31.37Z"/></g></g></g></svg>