<svg xmlns="http://www.w3.org/2000/svg" viewBox="0 0 63.21 63.22"><defs><style>.cls-1{fill:#47b5ff;}</style></defs><g id="Capa_2" data-name="Capa 2"><g id="Capa_1-2" data-name="Capa 1"><g id="Grupo_795" data-name="Grupo 795"><path id="Trazado_479" data-name="Trazado 479" class="cls-1" d="M31.38,18.11a12.93,12.93,0,0,0-2.82,8.4h2.77c1,0,1.3.35,1.3,1.31v2.72h2v-.73c0-2.25-.11-4.52.14-6.74a7.8,7.8,0,0,1,7.68-6.75c.43,0,.85,0,1.29,0a1.25,1.25,0,0,0-.57-1.55,8.06,8.06,0,0,1-2.92-9.49A8.22,8.22,0,0,1,48.69,0,8.13,8.13,0,0,1,56,7a7.85,7.85,0,0,1-3.28,7.79,1.26,1.26,0,0,0-.63,1.53c.78.05,1.59.05,2.38.16a7.92,7.92,0,0,1,6.73,7.71c0,2.13,0,4.25,0,6.45h.9a1,1,0,0,1,1.14.92,1,1,0,0,1,0,.24c0,1.25,0,2.5,0,3.76,0,.82-.39,1.18-1.22,1.2h-.82v23c0,1.21-.28,1.5-1.49,1.5H44.86v.62c0,1.12-.31,1.42-1.45,1.42h-42C.31,63.22,0,62.91,0,61.77A28.73,28.73,0,0,1,.2,57.52a7.78,7.78,0,0,1,4-5.52l.49-.28c-2.19-2.68-2.2-5.5,0-7.52a5.08,5.08,0,0,1,6.89-.05c2.2,2,2.21,4.82.06,7.52a11.94,11.94,0,0,1,3.7,3.41A8.46,8.46,0,0,1,19,51.73,5.09,5.09,0,0,1,17.73,46c.73-1.84,2.32-2.9,4.66-3.18V36.71h-.95a1,1,0,0,1-1-1v-.09c0-1.34,0-2.67,0-4a1,1,0,0,1,1-1h.09c.3,0,.6,0,1,0V27.93c0-1.09.31-1.41,1.39-1.41H26.4c.15-1.21.25-2.39.47-3.55a14.27,14.27,0,0,1,2.68-5.85,1.11,1.11,0,0,0,.2-.77A3.08,3.08,0,0,1,31,12.69a3.06,3.06,0,0,1,4.22,4.16,3.09,3.09,0,0,1-3.64,1.34ZM33.3,51.74c-2.17-2.55-2.22-5.39-.18-7.42a5.08,5.08,0,0,1,6.93-.24,5,5,0,0,1,1.73,3.31,5.14,5.14,0,0,1-1.66,4.32A8.34,8.34,0,0,1,44.9,59.1H59.09V36.74H24.48v.59c0,1.78,0,3.56,0,5.35a.8.8,0,0,0,.48.83A4.88,4.88,0,0,1,27.37,49,15.55,15.55,0,0,1,26,51.83a8.38,8.38,0,0,1,3.55,3.35A8.48,8.48,0,0,1,33.3,51.74Zm-19,9.42c0-.79,0-1.5,0-2.23A6.09,6.09,0,0,0,8,53a6.16,6.16,0,0,0-2.43.59c-3.08,1.51-3.83,4.22-3.44,7.53Zm14.27,0c0-.8,0-1.54,0-2.28a5.86,5.86,0,0,0-3.77-5.36,5.8,5.8,0,0,0-6.45,1.13c-2,1.75-2.16,4.06-1.95,6.51Zm14.36,0a23.77,23.77,0,0,0-.29-3.47,6,6,0,0,0-7.17-4.52l-.31.08c-3.72,1.05-5,4.36-4.44,7.91ZM41.15,18.61a5.49,5.49,0,0,0-4.29,4.59c-.21,2.27-.11,4.58-.15,6.87,0,.16,0,.32,0,.48h2v-4h2v4h6.06V23.09c-.85.42-1.64.83-2.43,1.2A1,1,0,0,1,43,24.05a1,1,0,0,1-.17-.41c-.19-.54-.36-1.08-.54-1.63-.39-1.14-.77-2.28-1.15-3.41Zm13.55,0-1.65,4.91c-.33,1-.83,1.17-1.75.72-.76-.36-1.51-.74-2.31-1.14v7.47h6.08v-4h2v4h2v-.73c0-2,.07-4,0-6.05a5.74,5.74,0,0,0-4.4-5.17Zm6.45,14.07H22.49v2H61.15ZM48,6.6A15.29,15.29,0,0,1,42,9.25c0,2.52,3,5.06,6,5s5.93-2.62,5.87-5.15A11,11,0,0,1,48,6.59ZM42,7.05a8.66,8.66,0,0,0,4.92-2.34c.88-.83,1.23-.84,2.09,0a8.72,8.72,0,0,0,4.27,2.25,6.25,6.25,0,0,0,.68.09,6.08,6.08,0,0,0-12,0ZM11.23,48a3.06,3.06,0,1,0-3.08,3h0a3.08,3.08,0,0,0,3.05-3Zm11.2-3.08A3.06,3.06,0,1,0,25.5,48a3.05,3.05,0,0,0-3.07-3.07h0Zm17.34,3A3.06,3.06,0,1,0,36.7,51a3.06,3.06,0,0,0,3.07-3.08Zm-9.19-19.3H24.52v1.94h6.06Zm19.36-12.4H45.88c0,.23-.08.62.07.84.61.9,1.29,1.76,2,2.67.6-.8,1.12-1.52,1.68-2.21a1.42,1.42,0,0,0,.34-1.31Zm-3.57,4.85c-.54-.73-1.07-1.34-1.49-2a1.28,1.28,0,0,0-1.63-.6L44.45,22Zm6.27-2.76c-.48.08-1,0-1.22.23-.7.77-1.28,1.65-1.94,2.53l1.93,1Zm-20-2a1,1,0,0,0,1-1,1,1,0,1,0-2,0h0a1,1,0,0,0,1,1Z"/><path id="Trazado_480" data-name="Trazado 480" class="cls-1" d="M11.2,20.4H3.3A3.08,3.08,0,0,1,0,17.57a3.84,3.84,0,0,1,0-.48V5.37A3.09,3.09,0,0,1,2.81,2a4.86,4.86,0,0,1,.54,0H19.08a3,3,0,0,1,3.34,2.69,3.86,3.86,0,0,1,0,.68,2.6,2.6,0,0,0,.94,2.26c.94.82,1.79,1.75,2.67,2.64.66.66.66,1.15,0,1.8-1.09,1.1-2.2,2.19-3.27,3.3a1.47,1.47,0,0,0-.32.77,8.67,8.67,0,0,0,0,1.14,3,3,0,0,1-3,3.07h-.07C16.64,20.41,13.92,20.4,11.2,20.4Zm12.89-9.2a24.86,24.86,0,0,0-2-1.88A4,4,0,0,1,20.4,5.26V5.2a1,1,0,0,0-.92-1.11H3.18A1,1,0,0,0,2.06,5a.88.88,0,0,0,0,.23q0,6,0,12a1,1,0,0,0,.86,1.12H19.27a1,1,0,0,0,1.14-.91,2,2,0,0,0,0-.25c0-.51,0-1,0-1.53A1.63,1.63,0,0,1,21,14.31c1-1,2-2,3.13-3.11Z"/><path id="Trazado_481" data-name="Trazado 481" class="cls-1" d="M18.33,6.17v2H4.14v-2Z"/><path id="Trazado_482" data-name="Trazado 482" class="cls-1" d="M18.33,14.32v2H4.14v-2Z"/><path id="Trazado_483" data-name="Trazado 483" class="cls-1" d="M6.18,10.23H16.29v2H6.18Z"/></g></g></g></svg>