<svg xmlns="http://www.w3.org/2000/svg" viewBox="0 0 55.78 65"><defs><style>.cls-1{fill:#47b5ff;}</style></defs><g id="Capa_2" data-name="Capa 2"><g id="Capa_1-2" data-name="Capa 1"><g id="Grupo_793" data-name="Grupo 793"><path id="Trazado_455" data-name="Trazado 455" class="cls-1" d="M50.11,41.2V17.91a1.23,1.23,0,0,0-1.26-1.22H43.71a1.28,1.28,0,0,0-1.36,1.19v21a13.18,13.18,0,0,0-2.5.33V24.77a1.29,1.29,0,0,0-1.32-1.25H33.42a1.26,1.26,0,0,0-1.33,1.2V44.41a13,13,0,1,0,18.19-3.09l-.17-.12M45,19.32h2.5V39.81a11.45,11.45,0,0,0-2.5-.69ZM34.72,26.16h2.5v14a13.26,13.26,0,0,0-2.5,1.5Zm17,31.1A10.4,10.4,0,1,1,38.77,42.34a1.19,1.19,0,0,0,.44-.17,10.22,10.22,0,0,1,3.55-.63,7.32,7.32,0,0,1,.81,0h0A10.26,10.26,0,0,1,48.06,43,10.4,10.4,0,0,1,51.7,57.25h0"/><path id="Trazado_456" data-name="Trazado 456" class="cls-1" d="M17.89,34.05H12.76a1.31,1.31,0,0,0-1.31,1.31V56a1.31,1.31,0,0,0,1.31,1.31h5.13A1.32,1.32,0,0,0,19.21,56V35.36a1.31,1.31,0,0,0-1.32-1.31M16.58,54.82h-2.5V36.67h2.5Z"/><path id="Trazado_457" data-name="Trazado 457" class="cls-1" d="M28.28,31H23.15a1.32,1.32,0,0,0-1.31,1.32v23.8a1.31,1.31,0,0,0,1.31,1.31h5.13a1.32,1.32,0,0,0,1.32-1.31V32.34A1.33,1.33,0,0,0,28.28,31M27,54.82h-2.5V33.65H27Z"/><path id="Trazado_458" data-name="Trazado 458" class="cls-1" d="M7.51,45.35H2.38a1.32,1.32,0,0,0-1.32,1.32V56a1.32,1.32,0,0,0,1.32,1.31H7.51A1.31,1.31,0,0,0,8.82,56V46.67a1.32,1.32,0,0,0-1.31-1.32M6.19,54.82H3.69V48h2.5Z"/><path id="Trazado_459" data-name="Trazado 459" class="cls-1" d="M49.91,0h-9a1.32,1.32,0,1,0,0,2.63h5.85L32.48,16.85l-5-5a1.44,1.44,0,0,0-1.87,0L.38,37.15A1.31,1.31,0,0,0,2.24,39h0L26.57,14.66l5,5a1.3,1.3,0,0,0,.93.42,1.41,1.41,0,0,0,.93-.42L48.6,4.5l0,5.85a1.33,1.33,0,0,0,1.27,1.37,1.31,1.31,0,0,0,1.36-1.27.17.17,0,0,0,0-.1l0-9A1.33,1.33,0,0,0,49.91,0"/><path id="Trazado_460" data-name="Trazado 460" class="cls-1" d="M47.24,57a.12.12,0,0,1,0,.15,5.54,5.54,0,0,1-1.8,1.34,5.47,5.47,0,0,1-5.79-.74,6.34,6.34,0,0,1-2-3.4H36.27a.38.38,0,0,1-.3-.08.4.4,0,0,1-.08-.28v-.82c0-.21.09-.32.27-.32h1.22c0-.39,0-.68,0-.87a5.85,5.85,0,0,1,0-.66H36.29a.36.36,0,0,1-.3-.09.38.38,0,0,1-.08-.27v-.82c0-.21.09-.32.27-.32h1.41a6.09,6.09,0,0,1,2-3.41,5.37,5.37,0,0,1,3.56-1.24,5.77,5.77,0,0,1,2.28.46,4.89,4.89,0,0,1,1.78,1.27.16.16,0,0,1,.06.12c0,.08-.06.16-.17.24l-1.34,1a.54.54,0,0,1-.34.12.18.18,0,0,1-.17-.07,4,4,0,0,0-.85-.69,2,2,0,0,0-1-.25c-1.34,0-2.2.8-2.58,2.41h2.78a.23.23,0,0,1,.2.08.31.31,0,0,1,.07.21v.82a.34.34,0,0,1-.12.3.61.61,0,0,1-.37.1H40.6c0,.15,0,.39,0,.72s0,.48,0,.82h3a.22.22,0,0,1,.2.08.31.31,0,0,1,.07.21v.8a.37.37,0,0,1-.12.31.68.68,0,0,1-.37.09h-2.5a3.3,3.3,0,0,0,1,1.75,2.55,2.55,0,0,0,1.65.57,2.5,2.5,0,0,0,1.17-.29,3.67,3.67,0,0,0,1-.69.23.23,0,0,1,.21-.13.21.21,0,0,1,.15.07l1.1,1.18a1,1,0,0,1,.15.2"/></g></g></g></svg>