<svg xmlns="http://www.w3.org/2000/svg" xmlns:xlink="http://www.w3.org/1999/xlink" viewBox="0 0 97.09 38.57"><defs><style>.cls-1{fill:none;}.cls-2{clip-path:url(#clip-path);}.cls-3{fill:#666;}.cls-4{clip-path:url(#clip-path-2);}.cls-5{clip-path:url(#clip-path-3);}.cls-6{clip-path:url(#clip-path-4);}</style><clipPath id="clip-path" transform="translate(6.13 6.56)"><path class="cls-1" d="M13.56,5.2,18,15.89H9.05ZM11.16,0,0,25.45H2.31a4.12,4.12,0,0,0,3.8-2.53l1.2-2.85H19.74L22,25.45h5.23L16.21,0Z"/></clipPath><clipPath id="clip-path-2" transform="translate(6.13 6.56)"><path class="cls-1" d="M33.73,4.29h5.64a8.6,8.6,0,0,1,4.27,1.07,7.84,7.84,0,0,1,3,3,9.42,9.42,0,0,1,0,8.73,7.63,7.63,0,0,1-2.93,3,8.34,8.34,0,0,1-4.2,1.07H33.74ZM28.86,0V25.45h10.4a14.47,14.47,0,0,0,7-1.64A12.08,12.08,0,0,0,51,19.29a12.51,12.51,0,0,0,1.72-6.56A12.73,12.73,0,0,0,51,6.15a11.92,11.92,0,0,0-4.73-4.53A14.27,14.27,0,0,0,39.45,0Z"/></clipPath><clipPath id="clip-path-3" transform="translate(6.13 6.56)"><polygon class="cls-1" points="54.78 6.91 54.78 25.45 59.66 25.45 59.66 3.98 54.78 6.91"/></clipPath><clipPath id="clip-path-4" transform="translate(6.13 6.56)"><path class="cls-1" d="M83,0a3.14,3.14,0,0,0-3.13,3.14V15a6.53,6.53,0,0,1-1.66,4.73,6,6,0,0,1-4.52,1.71,6.2,6.2,0,0,1-4.58-1.71A6.37,6.37,0,0,1,67.4,15V0H62.53V15a11.74,11.74,0,0,0,1.34,5.76,9.08,9.08,0,0,0,3.87,3.77,12.77,12.77,0,0,0,6,1.31,12.45,12.45,0,0,0,5.87-1.31,9,9,0,0,0,3.83-3.77A11.75,11.75,0,0,0,84.74,15V0Z"/></clipPath></defs><g id="Capa_2" data-name="Capa 2"><g id="Capa_1-2" data-name="Capa 1"><g id="Grupo_815" data-name="Grupo 815"><g id="Grupo_808" data-name="Grupo 808"><g class="cls-2"><g id="Grupo_807" data-name="Grupo 807"><rect id="Rectángulo_255" data-name="Rectángulo 255" class="cls-3" x="-2.74" y="-2.98" width="32.7" height="31.42" transform="translate(3.39 10.34) rotate(-14.4)"/></g></g></g><g id="Grupo_810" data-name="Grupo 810"><g class="cls-4"><g id="Grupo_809" data-name="Grupo 809"><rect id="Rectángulo_256" data-name="Rectángulo 256" class="cls-3" x="26.07" y="-2.56" width="29.43" height="30.58" transform="translate(4.25 17.1) rotate(-14.4)"/></g></g></g><g id="Grupo_812" data-name="Grupo 812"><g class="cls-5"><g id="Grupo_811" data-name="Grupo 811"><rect id="Rectángulo_257" data-name="Rectángulo 257" class="cls-3" x="52.19" y="3.71" width="10.06" height="22.02" transform="translate(4.27 21.26) rotate(-14.41)"/></g></g></g><g id="Grupo_814" data-name="Grupo 814"><g class="cls-6"><g id="Grupo_813" data-name="Grupo 813"><rect id="Rectángulo_258" data-name="Rectángulo 258" class="cls-3" x="59.67" y="-2.35" width="27.93" height="30.52" transform="translate(5.23 25.28) rotate(-14.4)"/></g></g></g><path id="Trazado_1143" data-name="Trazado 1143" class="cls-3" d="M57.91,0H54.77V5.59L59.6,2.67V1.72A1.69,1.69,0,0,0,57.91,0" transform="translate(6.13 6.56)"/></g></g></g></svg>