<svg id="Grupo_74" data-name="Grupo 74" xmlns="http://www.w3.org/2000/svg" width="34.599" height="34.598" viewBox="0 0 34.599 34.598">
  <path id="Trazado_61" data-name="Trazado 61" d="M-1885.946,2637.373a17.307,17.307,0,0,1-17.3-17.3,17.3,17.3,0,0,1,17.313-17.294,17.3,17.3,0,0,1,17.286,17.283A17.305,17.305,0,0,1-1885.946,2637.373Zm4.948-26.913c-1.116,0-2.19,0-3.264,0a3.885,3.885,0,0,0-3.662,3.65c-.006.922,0,1.845,0,2.767,0,.136-.011.272-.019.445h-2.95v3.552h2.937v8.79h3.489v-8.832h.458c.782,0,1.563-.007,2.344,0,.231,0,.314-.074.331-.3.029-.408.091-.814.135-1.221.07-.642.135-1.283.206-1.964h-3.428c0-.7.031-1.362-.007-2.023-.067-1.16.324-1.827,1.712-1.722.567.042,1.14.007,1.72.007Z" transform="translate(1903.251 -2602.775)" fill="#0b4461"/>
</svg>
