<svg xmlns="http://www.w3.org/2000/svg" viewBox="0 0 97.87 17.58"><defs><style>.cls-1{fill:#fff;}</style></defs><g id="Capa_2" data-name="Capa 2"><g id="Capa_1-2" data-name="Capa 1"><g id="Grupo_23" data-name="Grupo 23"><g id="Grupo_21" data-name="Grupo 21"><g id="Grupo_20" data-name="Grupo 20"><g id="Grupo_17" data-name="Grupo 17"><path id="Trazado_17" data-name="Trazado 17" class="cls-1" d="M12.17,8.09a3,3,0,0,0-1-.64,4,4,0,0,0-1.28-.21A3.67,3.67,0,0,0,8,7.68,3.18,3.18,0,0,0,6.77,9,.06.06,0,0,1,6.7,9a.06.06,0,0,1,0-.06V7.24H4.31V17.57H6.77V11.79c0-1.6.7-2.4,2.08-2.4a1.8,1.8,0,0,1,1.35.44,2.49,2.49,0,0,1,.4,1.64v6.1h2.49v-7a4.16,4.16,0,0,0-.25-1.44A3.1,3.1,0,0,0,12.17,8.09Z"/><path id="Trazado_18" data-name="Trazado 18" class="cls-1" d="M18.93,6.46H17.31a.06.06,0,0,1-.06-.06,3.3,3.3,0,0,1,.07-.77,1.08,1.08,0,0,1,.27-.53,1.12,1.12,0,0,1,.52-.29,3.84,3.84,0,0,1,.76-.07V2.64c-2.72,0-4.05,1.25-4.05,3.76a.07.07,0,0,1-.06.07H13.37V8.29h1.39a.07.07,0,0,1,.06.07v9.21h2.43V8.36a.07.07,0,0,1,.07-.07h1.61Z"/><path id="Trazado_19" data-name="Trazado 19" class="cls-1" d="M28.41,10.27a4.55,4.55,0,0,0-1-1.63,4.35,4.35,0,0,0-1.54-1,5.35,5.35,0,0,0-2.05-.37,5.55,5.55,0,0,0-2.09.37,4.54,4.54,0,0,0-1.56,1,4.77,4.77,0,0,0-1,1.64,6.32,6.32,0,0,0-.34,2.12,6.29,6.29,0,0,0,.34,2.1,4.45,4.45,0,0,0,1,1.63,4.34,4.34,0,0,0,1.56,1.05,5.49,5.49,0,0,0,2.12.38,5.3,5.3,0,0,0,2-.37,4.28,4.28,0,0,0,1.55-1,4.75,4.75,0,0,0,1-1.62,6.21,6.21,0,0,0,.34-2.13A6.44,6.44,0,0,0,28.41,10.27ZM23.83,15.5c-1.62,0-2.45-1-2.45-3.09s.83-3.07,2.45-3.07,2.44,1,2.44,3.07-.83,3.09-2.45,3.09Z"/><rect id="Rectángulo_19" data-name="Rectángulo 19" class="cls-1" y="2.55" width="2.46" height="15.02"/></g><g id="Grupo_19" data-name="Grupo 19"><g id="Grupo_18" data-name="Grupo 18"><path id="Trazado_20" data-name="Trazado 20" class="cls-1" d="M64.45,17.57a4.5,4.5,0,0,0,1.74-.31,3,3,0,0,0,1.19-.82.08.08,0,0,1,.07,0,.07.07,0,0,1,0,.06,6.68,6.68,0,0,0,.15,1.08h2.3V11.09a5.69,5.69,0,0,0-.22-1.64A2.89,2.89,0,0,0,69,8.25a3.09,3.09,0,0,0-1.27-.74,6.16,6.16,0,0,0-2-.26,6.65,6.65,0,0,0-2,.25,3.29,3.29,0,0,0-1.3.7,2.67,2.67,0,0,0-.72,1.08,4.33,4.33,0,0,0-.24,1.33h2.29a2,2,0,0,1,.5-1,1.8,1.8,0,0,1,1.34-.42,2.43,2.43,0,0,1,1.24.28.91.91,0,0,1,.48.81.93.93,0,0,1-.37.81,3.33,3.33,0,0,1-1.34.38c-.65.09-1.26.2-1.8.31a4.71,4.71,0,0,0-1.41.53,2.52,2.52,0,0,0-.92,1,3.74,3.74,0,0,0-.33,1.68A2.56,2.56,0,0,0,62,16.84,3.45,3.45,0,0,0,64.45,17.57Zm-.3-4A3.74,3.74,0,0,1,65.72,13a8.22,8.22,0,0,0,1.09-.26,1.34,1.34,0,0,0,.55-.3.08.08,0,0,1,.08,0,.07.07,0,0,1,0,.06l0,1.09a2,2,0,0,1-.2.86,2.37,2.37,0,0,1-.52.7,2.23,2.23,0,0,1-.76.48,2.35,2.35,0,0,1-1,.17q-1.32,0-1.32-1.17a1.26,1.26,0,0,1,.44-1Z"/><path id="Trazado_21" data-name="Trazado 21" class="cls-1" d="M40,4.08A5.19,5.19,0,0,0,38.25,3,6.1,6.1,0,0,0,36,2.62a6.18,6.18,0,0,0-2.54.52,5.5,5.5,0,0,0-1.92,1.5A6.88,6.88,0,0,0,30.35,7a11.22,11.22,0,0,0-.43,3.2,10,10,0,0,0,.46,3.18,6.89,6.89,0,0,0,1.28,2.29,5.21,5.21,0,0,0,1.92,1.39,6.36,6.36,0,0,0,2.4.46,5.49,5.49,0,0,0,2.09-.38,5.08,5.08,0,0,0,1.67-1.07,5.74,5.74,0,0,0,1.19-1.66,8.32,8.32,0,0,0,.68-2.1H39a3.82,3.82,0,0,1-1,2,2.8,2.8,0,0,1-2,.73,2.74,2.74,0,0,1-2.48-1.34,7.08,7.08,0,0,1-.82-3.7,7,7,0,0,1,.83-3.68A2.87,2.87,0,0,1,36,5a2.82,2.82,0,0,1,1.84.69A3.38,3.38,0,0,1,39,7.58h2.65a6,6,0,0,0-.52-1.9A5,5,0,0,0,40,4.08Z"/><path id="Trazado_22" data-name="Trazado 22" class="cls-1" d="M45.33,17.57a4.45,4.45,0,0,0,1.73-.31,3,3,0,0,0,1.19-.82.1.1,0,0,1,.07,0s0,0,0,.06a6.65,6.65,0,0,0,.14,1.08h2.3V11.09a5.69,5.69,0,0,0-.22-1.64,2.89,2.89,0,0,0-.69-1.2,3.09,3.09,0,0,0-1.27-.74,6.12,6.12,0,0,0-2-.26,6.65,6.65,0,0,0-2,.25,3.36,3.36,0,0,0-1.3.7,2.67,2.67,0,0,0-.72,1.08,4.33,4.33,0,0,0-.24,1.33h2.29a2,2,0,0,1,.5-1,1.8,1.8,0,0,1,1.34-.42,2.43,2.43,0,0,1,1.24.28A1,1,0,0,1,47.92,11a3.45,3.45,0,0,1-1.34.38c-.65.09-1.26.2-1.8.31a4.71,4.71,0,0,0-1.41.53,2.6,2.6,0,0,0-.92,1,3.74,3.74,0,0,0-.33,1.68,2.63,2.63,0,0,0,.77,1.93A3.46,3.46,0,0,0,45.33,17.57Zm-.3-4A3.65,3.65,0,0,1,46.59,13a8.22,8.22,0,0,0,1.09-.26,1.34,1.34,0,0,0,.55-.3.08.08,0,0,1,.08,0,.07.07,0,0,1,0,.06l0,1.09a2,2,0,0,1-.2.86,2.52,2.52,0,0,1-.51.7,2.33,2.33,0,0,1-.76.48,2.43,2.43,0,0,1-1,.17c-.87,0-1.32-.39-1.32-1.17a1.26,1.26,0,0,1,.44-1Z"/><path id="Trazado_23" data-name="Trazado 23" class="cls-1" d="M51.74,14.24A3.09,3.09,0,0,0,53,16.61a5.43,5.43,0,0,0,3.45,1,5,5,0,0,0,3.16-.86,2.84,2.84,0,0,0,1.06-2.37,2.45,2.45,0,0,0-.4-1.49A2.86,2.86,0,0,0,59.06,12c-.44-.16-.88-.29-1.33-.41s-1-.27-1.6-.43a5.21,5.21,0,0,1-1.21-.46.8.8,0,0,1-.44-.73.72.72,0,0,1,.44-.69,2.75,2.75,0,0,1,1.17-.2,2.36,2.36,0,0,1,1.35.3,1.44,1.44,0,0,1,.54,1h2.37A3.23,3.23,0,0,0,59.27,8a4.93,4.93,0,0,0-3.1-.81,7.08,7.08,0,0,0-1.89.22,3.66,3.66,0,0,0-1.26.6,2.23,2.23,0,0,0-.7.91,3.05,3.05,0,0,0-.22,1.15,3,3,0,0,0,.26,1.21,2.49,2.49,0,0,0,1,1,5.33,5.33,0,0,0,1.26.58c.5.16,1.17.34,2,.54a7.17,7.17,0,0,1,1.13.39.82.82,0,0,1,.5.8.87.87,0,0,1-.56.85,2.92,2.92,0,0,1-1.24.24,2.62,2.62,0,0,1-1.54-.4,1.31,1.31,0,0,1-.56-1.08Z"/><path id="Trazado_24" data-name="Trazado 24" class="cls-1" d="M72.09,16.61a5.42,5.42,0,0,0,3.44,1,5,5,0,0,0,3.16-.86,2.85,2.85,0,0,0,1.07-2.37,2.39,2.39,0,0,0-.41-1.49A2.79,2.79,0,0,0,78.18,12c-.43-.16-.88-.29-1.33-.41s-1-.27-1.6-.43A5.21,5.21,0,0,1,74,10.69a.79.79,0,0,1-.43-.73A.72.72,0,0,1,74,9.27a2.78,2.78,0,0,1,1.17-.2,2.39,2.39,0,0,1,1.36.3,1.47,1.47,0,0,1,.54,1h2.36A3.14,3.14,0,0,0,78.39,8a4.92,4.92,0,0,0-3.1-.81,7,7,0,0,0-1.88.22,3.71,3.71,0,0,0-1.27.6,2.23,2.23,0,0,0-.7.91,3,3,0,0,0-.21,1.15,2.67,2.67,0,0,0,.26,1.21,2.46,2.46,0,0,0,.94,1,5.4,5.4,0,0,0,1.27.58c.5.16,1.17.34,2,.54a7.43,7.43,0,0,1,1.12.39.81.81,0,0,1,.5.8.85.85,0,0,1-.55.85,3,3,0,0,1-1.25.24A2.59,2.59,0,0,1,74,15.3a1.3,1.3,0,0,1-.57-1.08H70.87A3.09,3.09,0,0,0,72.09,16.61Z"/></g></g></g></g><g id="Grupo_22" data-name="Grupo 22"><path id="Trazado_25" data-name="Trazado 25" class="cls-1" d="M97.41,5.62,90.84.28a1.28,1.28,0,0,0-1.59,0L82.69,5.62a1.25,1.25,0,0,0-.47,1v9.68a1.27,1.27,0,0,0,1.26,1.26H96.69l-3.91-4.39a4.72,4.72,0,1,1,.83-.76L97.68,17a1.21,1.21,0,0,0,.19-.67V6.6A1.27,1.27,0,0,0,97.41,5.62Z"/><circle id="Elipse_1" data-name="Elipse 1" class="cls-1" cx="90.05" cy="9.33" r="3.75"/></g></g></g></g></svg>