<svg xmlns="http://www.w3.org/2000/svg" width="33.781" height="33.708" viewBox="0 0 33.781 33.708">
  <g id="Grupo_72" data-name="Grupo 72" transform="translate(0)">
    <path id="Trazado_57" data-name="Trazado 57" d="M-1846.3,2619.607a16.88,16.88,0,0,1,16.9-16.832,16.878,16.878,0,0,1,16.878,16.891,16.881,16.881,0,0,1-16.92,16.817A16.882,16.882,0,0,1-1846.3,2619.607Zm6.487,0h-.029c0,1.28-.009,2.561,0,3.841a10.232,10.232,0,0,0,.1,1.443,5.41,5.41,0,0,0,3.173,4.419,7.309,7.309,0,0,0,3.019.617q3.951.02,7.9,0a10.893,10.893,0,0,0,1.713-.129,5.378,5.378,0,0,0,4.5-3.505,7.375,7.375,0,0,0,.459-2.64c0-2.606.006-5.212,0-7.818a9.714,9.714,0,0,0-.1-1.476,5.393,5.393,0,0,0-3.483-4.548,7.3,7.3,0,0,0-2.64-.486c-2.8-.014-5.606-.019-8.409,0a6.958,6.958,0,0,0-3.284.777,5.466,5.466,0,0,0-2.9,4.823C-1839.887,2616.484-1839.811,2618.05-1839.811,2619.611Z" transform="translate(1846.298 -2602.775)" fill="#0b4461"/>
    <path id="Trazado_58" data-name="Trazado 58" d="M-1829.408,2611.274c1.385,0,2.77-.012,4.155.007a6.621,6.621,0,0,1,1.337.157,3.677,3.677,0,0,1,2.951,3.307,10.132,10.132,0,0,1,.068,1.141c.005,2.562.022,5.124-.011,7.686a6.206,6.206,0,0,1-.3,1.88,3.432,3.432,0,0,1-3.267,2.451c-1.965.11-3.937.1-5.907.106-1.305,0-2.614,0-3.914-.1a3.7,3.7,0,0,1-3.555-3.467,9.278,9.278,0,0,1-.063-1.041c-.005-2.595-.022-5.191.011-7.786a6,6,0,0,1,.3-1.813,3.477,3.477,0,0,1,3.267-2.455c1.367-.1,2.744-.079,4.117-.109.27-.006.54,0,.81,0Zm-.007,2.877a5.47,5.47,0,0,0-5.483,5.519,5.473,5.473,0,0,0,5.533,5.437,5.471,5.471,0,0,0,5.449-5.452A5.471,5.471,0,0,0-1829.415,2614.151Zm5.53,1.116a1.092,1.092,0,0,0,1.1-1.081,1.094,1.094,0,0,0-1.082-1.1,1.09,1.09,0,0,0-1.113,1.1A1.085,1.085,0,0,0-1823.885,2615.267Z" transform="translate(1846.298 -2602.775)" fill="#0b4461"/>
    <path id="Trazado_59" data-name="Trazado 59" d="M-1832.95,2619.646a3.534,3.534,0,0,1,3.526-3.551,3.529,3.529,0,0,1,3.558,3.517,3.528,3.528,0,0,1-3.524,3.55A3.533,3.533,0,0,1-1832.95,2619.646Z" transform="translate(1846.298 -2602.775)" fill="#0b4461"/>
  </g>
</svg>
