<svg id="Grupo_73" data-name="Grupo 73" xmlns="http://www.w3.org/2000/svg" width="34.729" height="34.728" viewBox="0 0 34.729 34.728">
  <path id="Trazado_60" data-name="Trazado 60" d="M-1774.475,2602.775h2.1a1.99,1.99,0,0,0,.261.055,16.533,16.533,0,0,1,7.307,2.262,17.139,17.139,0,0,1,8.444,12.055c.119.63.179,1.271.267,1.907v2.1c-.02.109-.043.217-.058.327-.094.681-.154,1.369-.285,2.044a17.338,17.338,0,0,1-14.032,13.71c-.632.107-1.269.178-1.9.266h-2.171a1.369,1.369,0,0,0-.224-.056,15.44,15.44,0,0,1-4.3-.887,17.123,17.123,0,0,1-11.484-13.4c-.131-.638-.185-1.292-.275-1.939v-2.17c.088-.636.158-1.274.266-1.906a17.337,17.337,0,0,1,13.706-14.031C-1776.066,2602.965-1775.267,2602.887-1774.475,2602.775Zm-1.628,14.317v12.173h3.739v-.416c0-1.9-.005-3.8,0-5.7a4.353,4.353,0,0,1,.369-1.98,2.059,2.059,0,0,1,2.3-1.038,1.646,1.646,0,0,1,1.448,1.485,7.707,7.707,0,0,1,.132,1.38c.015,1.955.007,3.91.008,5.866v.393h3.771c.007-.112.018-.2.018-.289,0-2.17.023-4.34-.014-6.509a14.583,14.583,0,0,0-.265-2.589,3.405,3.405,0,0,0-2.546-2.874,6.85,6.85,0,0,0-1.874-.217,3.885,3.885,0,0,0-3.363,1.832.941.941,0,0,1-.143.119v-1.64Zm-6.166,0v12.17h3.738v-12.17Zm1.829-1.69a2.205,2.205,0,0,0,2.232-2.2,2.221,2.221,0,0,0-2.2-2.208,2.215,2.215,0,0,0-2.21,2.192A2.192,2.192,0,0,0-1780.44,2615.4Z" transform="translate(1790.822 -2602.775)" fill="#0b4461"/>
</svg>
