<svg xmlns="http://www.w3.org/2000/svg" width="107.73" height="65.382" viewBox="0 0 107.73 65.382">
  <g id="Grupo_15" data-name="Grupo 15" transform="translate(2466.925 -16)">
    <path id="Trazado_6" data-name="Trazado 6" d="M-2461.9,81.215V69.358h2.988a3.233,3.233,0,0,1,2.353.684,2.584,2.584,0,0,1,.668,1.885v.833a2.866,2.866,0,0,1-.359,1.518,1.991,1.991,0,0,1-1.16.834,2.076,2.076,0,0,1,1.277.784,2.527,2.527,0,0,1,.392,1.467v1.051a3.1,3.1,0,0,1-.626,2.059,2.894,2.894,0,0,1-2.295.742Zm1.169-10.822v4.219h1.769a1.953,1.953,0,0,0,1.46-.451,2.006,2.006,0,0,0,.426-1.417v-.717a1.63,1.63,0,0,0-.426-1.218,2.027,2.027,0,0,0-1.444-.416Zm0,5.252v4.5h1.919a1.957,1.957,0,0,0,1.46-.425,1.99,1.99,0,0,0,.393-1.376V77.43a1.81,1.81,0,0,0-.451-1.334,2.1,2.1,0,0,0-1.519-.451Z" fill="#0b4461"/>
    <path id="Trazado_7" data-name="Trazado 7" d="M-2445.356,76.229v4.986h-1.169V69.358h2.988a3.207,3.207,0,0,1,2.345.718,2.792,2.792,0,0,1,.71,2.051v1.184a2.627,2.627,0,0,1-.393,1.509,2.229,2.229,0,0,1-1.143.842,1.715,1.715,0,0,1,1.076.725,2.926,2.926,0,0,1,.326,1.526V80.5a1.032,1.032,0,0,0,.075.409.974.974,0,0,0,.209.308h-1.319a.594.594,0,0,1-.142-.308,2.143,2.143,0,0,1-.041-.425V77.947a1.871,1.871,0,0,0-.384-1.318,1.926,1.926,0,0,0-1.4-.4Zm0-5.82v4.77h1.752a1.947,1.947,0,0,0,1.444-.484,1.967,1.967,0,0,0,.476-1.434V72.21a1.885,1.885,0,0,0-.434-1.342,1.961,1.961,0,0,0-1.469-.459Z" fill="#0b4461"/>
    <path id="Trazado_8" data-name="Trazado 8" d="M-2430.51,80.49a3.907,3.907,0,0,1-.859-2.793v-4.72a4,4,0,0,1,.868-2.785,3.133,3.133,0,0,1,2.437-.95,3.131,3.131,0,0,1,2.445.95,4.025,4.025,0,0,1,.859,2.785V77.7a3.887,3.887,0,0,1-.868,2.785,3.248,3.248,0,0,1-2.453.9,3.215,3.215,0,0,1-2.429-.892m4-.884A3.17,3.17,0,0,0-2426,77.63V73.011a3.407,3.407,0,0,0-.5-2.01,1.826,1.826,0,0,0-1.586-.692,1.8,1.8,0,0,0-1.569.7,3.4,3.4,0,0,0-.5,2V77.63a3.206,3.206,0,0,0,.509,1.976,1.869,1.869,0,0,0,1.578.659,1.854,1.854,0,0,0,1.552-.659" fill="#0b4461"/>
    <path id="Trazado_9" data-name="Trazado 9" d="M-2412.659,74.461l-1.552,2.351v4.4h-1.152V69.359h1.152v5.636l-.033.45.067-.15,3.805-5.937h1.352l-2.788,4.319,3.038,7.538h-1.3l-2.42-6.2Z" fill="#0b4461"/>
    <path id="Trazado_10" data-name="Trazado 10" d="M-2394.482,81.215h-5.425V69.359h5.275v1.084h-4.106v4.136h3.555v1.1h-3.555V80.1h4.256Z" fill="#0b4461"/>
    <path id="Trazado_11" data-name="Trazado 11" d="M-2384.251,76.229v4.986h-1.168V69.358h2.988a3.209,3.209,0,0,1,2.345.718,2.792,2.792,0,0,1,.709,2.051v1.184a2.634,2.634,0,0,1-.392,1.509,2.237,2.237,0,0,1-1.143.842,1.721,1.721,0,0,1,1.076.725,2.924,2.924,0,0,1,.326,1.526V80.5a1.015,1.015,0,0,0,.075.409.971.971,0,0,0,.208.308h-1.318a.579.579,0,0,1-.142-.308,2.144,2.144,0,0,1-.042-.425V77.947a1.866,1.866,0,0,0-.384-1.318,1.923,1.923,0,0,0-1.4-.4Zm0-5.82v4.77h1.753a1.947,1.947,0,0,0,1.444-.484,1.966,1.966,0,0,0,.475-1.434V72.21a1.879,1.879,0,0,0-.434-1.342,1.959,1.959,0,0,0-1.468-.459Z" fill="#0b4461"/>
    <path id="Trazado_12" data-name="Trazado 12" d="M-2369.771,80.582a3.106,3.106,0,0,1-.76-2.252V76.963h1.235v1.351a2.045,2.045,0,0,0,.484,1.442,2,2,0,0,0,1.536.525,1.768,1.768,0,0,0,1.427-.525,1.936,1.936,0,0,0,.442-1.292v-.517a2.184,2.184,0,0,0-.083-.626,1.524,1.524,0,0,0-.251-.492,2.725,2.725,0,0,0-.868-.725q-.534-.291-1.134-.559c-.212-.1-.421-.2-.627-.308s-.408-.214-.609-.325a3.172,3.172,0,0,1-.984-.934,2.631,2.631,0,0,1-.384-1.5V72.06a2.853,2.853,0,0,1,.742-2.018,2.873,2.873,0,0,1,2.212-.8,3.019,3.019,0,0,1,2.245.742,2.7,2.7,0,0,1,.726,1.976v1.184h-1.185V72.027a1.8,1.8,0,0,0-.442-1.326,1.832,1.832,0,0,0-1.344-.442,1.649,1.649,0,0,0-1.327.517,1.931,1.931,0,0,0-.442,1.3v.35a1.943,1.943,0,0,0,.083.584,1.536,1.536,0,0,0,.251.483,2.863,2.863,0,0,0,.859.684c.351.189.72.372,1.11.55.211.1.423.2.634.309s.417.219.618.342a3.172,3.172,0,0,1,.993.95,2.7,2.7,0,0,1,.392,1.534v.6a2.892,2.892,0,0,1-.784,2.076,2.985,2.985,0,0,1-2.27.825,3.364,3.364,0,0,1-2.5-.783" fill="#0b4461"/>
    <rect id="Rectángulo_18" data-name="Rectángulo 18" width="107.73" height="48.572" transform="translate(-2466.925 16)" fill="#0b4461"/>
    <path id="Trazado_13" data-name="Trazado 13" d="M-2457.3,56.645V51.825l9.915-21.687h-9.29V24.65h15.587v5l-9.647,21.419h9.781v5.578Z" fill="#fff"/>
    <path id="Trazado_14" data-name="Trazado 14" d="M-2405.442,56.646h-5.226V24.652h5.136l7.369,18.028,1.116,3.614-.312-4.328V24.652h5.225V56.646h-5l-7.548-18.162-1.116-3.837.357,4.775Z" fill="#fff"/>
    <path id="Trazado_15" data-name="Trazado 15" d="M-2375.52,51.916h-6.789l-.893,4.73h-5.762l7.1-31.994h5.761l7.28,31.994h-5.761Zm-5.806-5.042h4.823l-2.1-10.665-.357-4.463-.358,4.463Z" fill="#fff"/>
    <path id="Trazado_16" data-name="Trazado 16" d="M-2425.837,22.323l-11.2,8.437V56.646h22.407V30.76Zm6.015,28.746h-12.029V34.2l6.014-4.667,6.015,4.667Z" fill="#fff"/>
  </g>
</svg>
