<svg xmlns="http://www.w3.org/2000/svg" viewBox="0 0 135.73 103.32"><defs><style>.cls-1{fill:#0b4461;}.cls-2{fill:#fff;}</style></defs><g id="Capa_2" data-name="Capa 2"><g id="Capa_1-2" data-name="Capa 1"><path id="Trazado_71" data-name="Trazado 71" class="cls-1" d="M6.33,82.24V67.29H10.1a4,4,0,0,1,3,.86,3.23,3.23,0,0,1,.84,2.37v1.06a3.57,3.57,0,0,1-.45,1.91A2.51,2.51,0,0,1,12,74.54a2.61,2.61,0,0,1,1.61,1,3.18,3.18,0,0,1,.49,1.85V78.7a3.85,3.85,0,0,1-.79,2.6,3.64,3.64,0,0,1-2.89.94ZM7.81,68.59v5.32H10a2.48,2.48,0,0,0,1.84-.57,2.54,2.54,0,0,0,.53-1.79v-.9a2.06,2.06,0,0,0-.53-1.53,2.6,2.6,0,0,0-1.82-.53Zm0,6.62v5.68h2.41a2.43,2.43,0,0,0,1.84-.54,2.49,2.49,0,0,0,.5-1.73V77.46A2.3,2.3,0,0,0,12,75.78a2.69,2.69,0,0,0-1.91-.57Z"/><path id="Trazado_72" data-name="Trazado 72" class="cls-1" d="M27.17,76v6.29H25.7V67.29h3.77a4,4,0,0,1,3,.9,3.48,3.48,0,0,1,.89,2.58v1.49a3.32,3.32,0,0,1-.49,1.9,2.8,2.8,0,0,1-1.44,1.07,2.12,2.12,0,0,1,1.35.91,3.69,3.69,0,0,1,.42,1.93v3.25a1.14,1.14,0,0,0,.09.52,1.16,1.16,0,0,0,.26.39H31.84a.78.78,0,0,1-.18-.39,3.29,3.29,0,0,1-.05-.54V78.1a2.37,2.37,0,0,0-.48-1.66,2.45,2.45,0,0,0-1.77-.5Zm0-7.34v6h2.21A2.39,2.39,0,0,0,31.2,74a2.48,2.48,0,0,0,.6-1.8V70.88a2.37,2.37,0,0,0-.55-1.69,2.44,2.44,0,0,0-1.85-.58Z"/><path id="Trazado_73" data-name="Trazado 73" class="cls-1" d="M45.88,81.32a4.93,4.93,0,0,1-1.09-3.52v-6a5,5,0,0,1,1.1-3.51A3.93,3.93,0,0,1,49,67.14,3.88,3.88,0,0,1,52,68.34a5,5,0,0,1,1.08,3.51v6A4.85,4.85,0,0,1,52,81.31a4.09,4.09,0,0,1-3.09,1.14,4.05,4.05,0,0,1-3.06-1.13m5-1.11a4,4,0,0,0,.66-2.49V71.89a4.4,4.4,0,0,0-.63-2.53,2.32,2.32,0,0,0-2-.88,2.28,2.28,0,0,0-2,.89,4.21,4.21,0,0,0-.63,2.52v5.83A4,4,0,0,0,47,80.21a2.75,2.75,0,0,0,3.94,0"/><path id="Trazado_74" data-name="Trazado 74" class="cls-1" d="M68.37,73.72l-2,3v5.55H65V67.29h1.45v7.1l0,.57.08-.19,4.8-7.48H73l-3.51,5.44,3.82,9.5H71.62l-3.05-7.82Z"/><path id="Trazado_75" data-name="Trazado 75" class="cls-1" d="M91.27,82.24H84.43V67.29h6.65v1.36H85.91v5.22h4.48v1.39H85.91v5.57h5.36Z"/><path id="Trazado_76" data-name="Trazado 76" class="cls-1" d="M104.16,76v6.29h-1.47V67.29h3.76a4,4,0,0,1,3,.9,3.52,3.52,0,0,1,.89,2.58v1.49a3.25,3.25,0,0,1-.5,1.9,2.76,2.76,0,0,1-1.44,1.07,2.12,2.12,0,0,1,1.36.91,3.68,3.68,0,0,1,.41,1.93v3.25a1.5,1.5,0,0,0,.09.52,1.36,1.36,0,0,0,.27.39h-1.66a.7.7,0,0,1-.18-.39,2.47,2.47,0,0,1-.05-.54V78.1a2.38,2.38,0,0,0-.49-1.66,2.42,2.42,0,0,0-1.76-.5Zm0-7.34v6h2.21a2.4,2.4,0,0,0,1.82-.61,2.53,2.53,0,0,0,.6-1.8V70.88a2.41,2.41,0,0,0-.55-1.69,2.44,2.44,0,0,0-1.85-.58Z"/><path id="Trazado_77" data-name="Trazado 77" class="cls-1" d="M122.4,81.44a3.94,3.94,0,0,1-1-2.84V76.87H123v1.7a2.55,2.55,0,0,0,.61,1.82,2.5,2.5,0,0,0,1.93.67,2.2,2.2,0,0,0,1.8-.67,2.4,2.4,0,0,0,.56-1.63v-.65a2.68,2.68,0,0,0-.1-.79,2.15,2.15,0,0,0-.32-.62,3.4,3.4,0,0,0-1.09-.91c-.45-.25-.93-.48-1.43-.7l-.79-.39-.77-.41a4,4,0,0,1-1.24-1.18,3.24,3.24,0,0,1-.48-1.89v-.53a3.36,3.36,0,0,1,3.72-3.55,3.81,3.81,0,0,1,2.83.93,3.41,3.41,0,0,1,.91,2.5v1.49h-1.49V70.65a2.23,2.23,0,0,0-.56-1.67,2.26,2.26,0,0,0-1.69-.56,2.09,2.09,0,0,0-1.67.65,2.46,2.46,0,0,0-.56,1.64v.45a2.62,2.62,0,0,0,.1.73,2,2,0,0,0,.32.61,3.45,3.45,0,0,0,1.08.86c.44.24.91.47,1.4.7.27.12.53.25.8.39a7.37,7.37,0,0,1,.78.43,4,4,0,0,1,1.25,1.2,3.44,3.44,0,0,1,.49,1.93v.76a3.64,3.64,0,0,1-1,2.62,3.77,3.77,0,0,1-2.86,1,4.23,4.23,0,0,1-3.14-1"/><rect id="Rect치ngulo_30" data-name="Rect치ngulo 30" class="cls-1" width="135.73" height="61.25"/><rect id="Rect치ngulo_31" data-name="Rect치ngulo 31" class="cls-1" x="28.9" y="94" width="77.63" height="9.32"/><path id="Trazado_78" data-name="Trazado 78" class="cls-2" d="M32.08,100.91a1.36,1.36,0,0,1-.3-1v-.64h.68v.62a.8.8,0,0,0,.16.52.78.78,0,0,0,1,0,.72.72,0,0,0,.14-.47v-.2a.85.85,0,0,0,0-.23.56.56,0,0,0-.09-.19,1.05,1.05,0,0,0-.34-.29l-.43-.22-.26-.14c-.08,0-.16-.1-.24-.15a1.27,1.27,0,0,1-.4-.4,1.25,1.25,0,0,1-.16-.65v-.16a1.24,1.24,0,0,1,0-.33,1.14,1.14,0,0,1,.51-.74,1.49,1.49,0,0,1,.72-.16,1.2,1.2,0,0,1,1,.33,1.21,1.21,0,0,1,.3.83v.55h-.66v-.5a.71.71,0,0,0-.14-.47.65.65,0,0,0-.48-.17.57.57,0,0,0-.46.19.78.78,0,0,0-.14.49v.11a.83.83,0,0,0,0,.22.5.5,0,0,0,.1.19,1.12,1.12,0,0,0,.33.28c.14.08.28.16.43.23a2,2,0,0,1,.25.14,2,2,0,0,1,.25.14,1.42,1.42,0,0,1,.4.41,1.2,1.2,0,0,1,.16.64V100a1.24,1.24,0,0,1-.34.9,1.25,1.25,0,0,1-1,.35,1.42,1.42,0,0,1-1.08-.34"/><path id="Trazado_79" data-name="Trazado 79" class="cls-2" d="M37.13,101.18h-.61v-5h.61l1,2.38,1-2.38h.6v5h-.62V98.05l.16-1.16-.28.88-.76,1.77H38l-.82-1.81L37,96.9l.19,1.16Z"/><path id="Trazado_80" data-name="Trazado 80" class="cls-2" d="M43.86,100.25H42.54l-.2.93h-.66l1.17-5h.66l1.22,5h-.67Zm-1.18-.62h1l-.47-2.13-.06-.73-.07.73Z"/><path id="Trazado_81" data-name="Trazado 81" class="cls-2" d="M47.33,99.16v2h-.65v-5H48a1.45,1.45,0,0,1,1,.3,1.13,1.13,0,0,1,.31.86v.56a1.12,1.12,0,0,1-.16.61.85.85,0,0,1-.45.34.7.7,0,0,1,.42.31,1.24,1.24,0,0,1,.13.62v1.1a.39.39,0,0,0,0,.18.53.53,0,0,0,.1.12h-.73a.33.33,0,0,1-.07-.13,1.1,1.1,0,0,1,0-.18V99.8a.74.74,0,0,0-.12-.48.62.62,0,0,0-.5-.16Zm0-2.4v1.82h.6a.67.67,0,0,0,.52-.18.78.78,0,0,0,.16-.53V97.4a.68.68,0,0,0-.16-.49.8.8,0,0,0-.54-.15Z"/><path id="Trazado_82" data-name="Trazado 82" class="cls-2" d="M52.72,96.79v4.39h-.66V96.79h-.9v-.61h2.47v.61Z"/><path id="Trazado_83" data-name="Trazado 83" class="cls-2" d="M59.15,99.16v2H58.5v-5h1.27a1.45,1.45,0,0,1,1,.3,1.13,1.13,0,0,1,.31.86v.56a1.11,1.11,0,0,1-.15.61.89.89,0,0,1-.45.34.71.71,0,0,1,.41.31,1.14,1.14,0,0,1,.13.62v1.1a.39.39,0,0,0,0,.18.53.53,0,0,0,.1.12h-.73a.31.31,0,0,1-.06-.13.37.37,0,0,1,0-.18V99.8a.81.81,0,0,0-.13-.48.62.62,0,0,0-.5-.16Zm0-2.4v1.82h.6a.67.67,0,0,0,.52-.18.78.78,0,0,0,.16-.53V97.4a.64.64,0,0,0-.16-.49.77.77,0,0,0-.53-.15Z"/><path id="Trazado_84" data-name="Trazado 84" class="cls-2" d="M65.57,101.18H63.26v-5H65.5v.6H63.91v1.55h1.38v.61H63.91v1.62h1.66Z"/><path id="Trazado_85" data-name="Trazado 85" class="cls-2" d="M69.5,100.25H68.18l-.2.93h-.66l1.17-5h.66l1.22,5H69.7Zm-1.18-.62h1l-.47-2.13-.06-.73-.06.73Z"/><path id="Trazado_86" data-name="Trazado 86" class="cls-2" d="M72.32,101.18v-5H73v4.36h1.5v.64Z"/><path id="Trazado_87" data-name="Trazado 87" class="cls-2" d="M81.72,101.18H79.41v-5h2.24v.6H80.06v1.55h1.38v.61H80.06v1.62h1.66Z"/><path id="Trazado_88" data-name="Trazado 88" class="cls-2" d="M83.89,100.91a1.41,1.41,0,0,1-.3-1v-.64h.69v.62a.8.8,0,0,0,.15.52.65.65,0,0,0,.54.2.62.62,0,0,0,.49-.19.73.73,0,0,0,.15-.47v-.2a.85.85,0,0,0,0-.23.44.44,0,0,0-.1-.19,1,1,0,0,0-.33-.29l-.44-.22-.25-.14a2.07,2.07,0,0,1-.25-.15,1.39,1.39,0,0,1-.4-.4,1.24,1.24,0,0,1-.15-.65v-.16a1.84,1.84,0,0,1,0-.33,2.47,2.47,0,0,1,.1-.29,1,1,0,0,1,.41-.45,1.55,1.55,0,0,1,.73-.16,1.21,1.21,0,0,1,1,.33,1.16,1.16,0,0,1,.29.83v.55h-.65v-.5a.67.67,0,0,0-.15-.47.62.62,0,0,0-.47-.17.56.56,0,0,0-.46.19.78.78,0,0,0-.14.49v.11a.83.83,0,0,0,0,.22.66.66,0,0,0,.09.19,1.16,1.16,0,0,0,.34.28,4.34,4.34,0,0,0,.43.23l.25.14.24.14a1.3,1.3,0,0,1,.4.41,1.11,1.11,0,0,1,.16.64V100a1.23,1.23,0,0,1-.33.9,1.28,1.28,0,0,1-1,.35,1.39,1.39,0,0,1-1.07-.34"/><path id="Trazado_89" data-name="Trazado 89" class="cls-2" d="M89.61,96.79v4.39H89V96.79h-.9v-.61h2.47v.61Z"/><path id="Trazado_90" data-name="Trazado 90" class="cls-2" d="M94.37,100.25H93.05l-.2.93h-.66l1.17-5H94l1.21,5h-.67Zm-1.18-.62h1l-.47-2.13-.06-.73-.06.73Z"/><path id="Trazado_91" data-name="Trazado 91" class="cls-2" d="M98.47,96.79v4.39h-.66V96.79h-.9v-.61h2.47v.61Z"/><path id="Trazado_92" data-name="Trazado 92" class="cls-2" d="M103.67,101.18h-2.32v-5h2.25v.6H102v1.55h1.39v.61H102v1.62h1.67Z"/><path id="Trazado_93" data-name="Trazado 93" class="cls-2" d="M12.13,51.25V45.18L24.62,17.83H12.92V10.91H32.56v6.3l-12.16,27H32.73v7Z"/><path id="Trazado_94" data-name="Trazado 94" class="cls-2" d="M77.46,51.26H70.88V10.91h6.47l9.28,22.73L88,38.2l-.4-5.46V10.91h6.59V51.26h-6.3l-9.51-22.9L77,23.52l.45,6Z"/><path id="Trazado_95" data-name="Trazado 95" class="cls-2" d="M115.16,45.29H106.6l-1.12,6H98.22l9-40.35h7.26l9.17,40.35h-7.26Zm-7.32-6.36h6.08l-2.64-13.45-.46-5.62-.44,5.62Z"/><path id="Trazado_96" data-name="Trazado 96" class="cls-2" d="M51.77,8,37.65,18.61V51.26H65.88V18.61Zm7.57,36.25H44.18V23l7.58-5.89L59.34,23Z"/></g></g></svg>