<svg id="Grupo_82" data-name="Grupo 82" xmlns="http://www.w3.org/2000/svg" width="135.727" height="103.324" viewBox="0 0 135.727 103.324">
  <path id="Trazado_71" data-name="Trazado 71" d="M-1572.151,2635.957v-14.951h3.765a4.074,4.074,0,0,1,2.965.862,3.261,3.261,0,0,1,.84,2.376v1.052a3.614,3.614,0,0,1-.451,1.913,2.507,2.507,0,0,1-1.462,1.052,2.616,2.616,0,0,1,1.609.989,3.189,3.189,0,0,1,.494,1.85v1.324a3.91,3.91,0,0,1-.789,2.6,3.645,3.645,0,0,1-2.891.935Zm1.472-13.647v5.32h2.229a2.458,2.458,0,0,0,1.84-.568,2.531,2.531,0,0,0,.536-1.787v-.9a2.053,2.053,0,0,0-.536-1.535,2.55,2.55,0,0,0-1.819-.526Zm0,6.624v5.678h2.419a2.463,2.463,0,0,0,1.84-.537,2.513,2.513,0,0,0,.494-1.734v-1.157a2.279,2.279,0,0,0-.568-1.682,2.646,2.646,0,0,0-1.914-.568Z" transform="translate(1578.485 -2553.721)" fill="#0b4461"/>
  <path id="Trazado_72" data-name="Trazado 72" d="M-1551.311,2629.67v6.288h-1.473v-14.952h3.765a4.042,4.042,0,0,1,2.954.9,3.525,3.525,0,0,1,.894,2.587v1.493a3.325,3.325,0,0,1-.494,1.9,2.824,2.824,0,0,1-1.441,1.062,2.158,2.158,0,0,1,1.356.915,3.678,3.678,0,0,1,.411,1.924v3.259a1.307,1.307,0,0,0,.094.516,1.245,1.245,0,0,0,.263.389h-1.661a.751.751,0,0,1-.179-.389,2.737,2.737,0,0,1-.052-.537v-3.2a2.353,2.353,0,0,0-.484-1.661,2.417,2.417,0,0,0-1.767-.505Zm0-7.339v6.014h2.208a2.448,2.448,0,0,0,1.819-.61,2.48,2.48,0,0,0,.6-1.808V2624.6a2.374,2.374,0,0,0-.547-1.693,2.472,2.472,0,0,0-1.851-.578Z" transform="translate(1578.485 -2553.721)" fill="#0b4461"/>
  <path id="Trazado_73" data-name="Trazado 73" d="M-1532.607,2635.043a4.929,4.929,0,0,1-1.083-3.523v-5.951a5.041,5.041,0,0,1,1.094-3.512,3.945,3.945,0,0,1,3.07-1.2,3.937,3.937,0,0,1,3.08,1.2,5.079,5.079,0,0,1,1.083,3.512v5.951a4.9,4.9,0,0,1-1.093,3.512,4.091,4.091,0,0,1-3.091,1.136,4.049,4.049,0,0,1-3.06-1.125m5.036-1.115a3.987,3.987,0,0,0,.652-2.492v-5.825a4.3,4.3,0,0,0-.63-2.534,2.3,2.3,0,0,0-2-.872,2.263,2.263,0,0,0-1.977.883,4.3,4.3,0,0,0-.631,2.523v5.825a4.043,4.043,0,0,0,.641,2.492,2.353,2.353,0,0,0,1.988.831,2.331,2.331,0,0,0,1.955-.831" transform="translate(1578.485 -2553.721)" fill="#0b4461"/>
  <path id="Trazado_74" data-name="Trazado 74" d="M-1510.117,2627.441l-1.956,2.965v5.552h-1.451v-14.951h1.451v7.107l-.042.568.084-.189,4.794-7.486h1.7l-3.512,5.446,3.827,9.5h-1.64l-3.049-7.823Z" transform="translate(1578.485 -2553.721)" fill="#0b4461"/>
  <path id="Trazado_75" data-name="Trazado 75" d="M-1487.217,2635.958h-6.835v-14.951h6.646v1.367h-5.173v5.215h4.479v1.388h-4.479v5.573h5.362Z" transform="translate(1578.485 -2553.721)" fill="#0b4461"/>
  <path id="Trazado_76" data-name="Trazado 76" d="M-1474.326,2629.67v6.288h-1.472v-14.952h3.764a4.046,4.046,0,0,1,2.955.9,3.529,3.529,0,0,1,.893,2.587v1.493a3.324,3.324,0,0,1-.494,1.9,2.824,2.824,0,0,1-1.441,1.062,2.163,2.163,0,0,1,1.357.915,3.688,3.688,0,0,1,.41,1.924v3.259a1.307,1.307,0,0,0,.094.516,1.26,1.26,0,0,0,.263.389h-1.661a.752.752,0,0,1-.179-.389,2.746,2.746,0,0,1-.052-.537v-3.2a2.353,2.353,0,0,0-.484-1.661,2.414,2.414,0,0,0-1.766-.505Zm0-7.339v6.014h2.208a2.448,2.448,0,0,0,1.819-.61,2.481,2.481,0,0,0,.6-1.808V2624.6a2.375,2.375,0,0,0-.547-1.693,2.471,2.471,0,0,0-1.85-.578Z" transform="translate(1578.485 -2553.721)" fill="#0b4461"/>
  <path id="Trazado_77" data-name="Trazado 77" d="M-1456.084,2635.158a3.912,3.912,0,0,1-.957-2.838v-1.725h1.556v1.7a2.578,2.578,0,0,0,.61,1.819,2.511,2.511,0,0,0,1.934.663,2.223,2.223,0,0,0,1.8-.663,2.44,2.44,0,0,0,.558-1.629v-.652a2.688,2.688,0,0,0-.106-.789,1.917,1.917,0,0,0-.315-.62,3.432,3.432,0,0,0-1.094-.915q-.672-.367-1.429-.7-.4-.189-.789-.389c-.26-.133-.515-.27-.768-.411a3.979,3.979,0,0,1-1.24-1.177,3.315,3.315,0,0,1-.484-1.892v-.526a3.6,3.6,0,0,1,.936-2.545,3.617,3.617,0,0,1,2.786-1.009,3.805,3.805,0,0,1,2.829.935,3.419,3.419,0,0,1,.915,2.493v1.493h-1.494v-1.409a2.273,2.273,0,0,0-.557-1.672,2.3,2.3,0,0,0-1.693-.557,2.078,2.078,0,0,0-1.672.652,2.436,2.436,0,0,0-.557,1.64v.442a2.456,2.456,0,0,0,.1.735,1.936,1.936,0,0,0,.316.61,3.626,3.626,0,0,0,1.083.863q.662.357,1.4.693c.266.127.533.256.8.39s.526.276.778.43a4.015,4.015,0,0,1,1.252,1.2,3.418,3.418,0,0,1,.494,1.935v.757a3.652,3.652,0,0,1-.989,2.618,3.76,3.76,0,0,1-2.86,1.041,4.232,4.232,0,0,1-3.143-.989" transform="translate(1578.485 -2553.721)" fill="#0b4461"/>
  <rect id="Rect치ngulo_30" data-name="Rect치ngulo 30" width="135.727" height="61.25" fill="#0b4461"/>
  <rect id="Rect치ngulo_31" data-name="Rect치ngulo 31" width="77.629" height="9.324" transform="translate(28.896 94)" fill="#0b4461"/>
  <path id="Trazado_78" data-name="Trazado 78" d="M-1546.409,2654.626a1.38,1.38,0,0,1-.3-.96v-.631h.686v.617a.81.81,0,0,0,.154.522.655.655,0,0,0,.54.193.585.585,0,0,0,.491-.189.742.742,0,0,0,.146-.47v-.2a.8.8,0,0,0-.031-.231.6.6,0,0,0-.094-.189,1.052,1.052,0,0,0-.333-.284q-.207-.115-.438-.228c-.084-.042-.168-.086-.253-.133s-.165-.1-.245-.148a1.354,1.354,0,0,1-.4-.409,1.2,1.2,0,0,1-.157-.649v-.161a1.467,1.467,0,0,1,.034-.322,1.582,1.582,0,0,1,.1-.294,1.013,1.013,0,0,1,.413-.445,1.412,1.412,0,0,1,.722-.165,1.253,1.253,0,0,1,.974.329,1.207,1.207,0,0,1,.294.834v.547h-.658v-.5a.7.7,0,0,0-.144-.473.6.6,0,0,0-.473-.165.536.536,0,0,0-.463.193.8.8,0,0,0-.14.481v.111a.766.766,0,0,0,.032.228.6.6,0,0,0,.094.186,1.144,1.144,0,0,0,.333.28c.138.08.282.157.431.232.085.041.169.086.252.133s.166.095.246.147a1.367,1.367,0,0,1,.4.406,1.179,1.179,0,0,1,.158.645v.259a1.243,1.243,0,0,1-.337.9,1.267,1.267,0,0,1-.953.346,1.407,1.407,0,0,1-1.076-.336" transform="translate(1578.485 -2553.721)" fill="#fff"/>
  <path id="Trazado_79" data-name="Trazado 79" d="M-1541.352,2654.9h-.617v-5h.61l1,2.383,1-2.383h.6v5h-.617v-3.126l.161-1.163-.28.883-.764,1.766h-.2l-.813-1.808-.26-.834.182,1.163Z" transform="translate(1578.485 -2553.721)" fill="#fff"/>
  <path id="Trazado_80" data-name="Trazado 80" d="M-1534.625,2653.968h-1.317l-.2.932h-.665l1.17-5h.665l1.213,5h-.665Zm-1.184-.617h1.044l-.469-2.131-.063-.728-.063.728Z" transform="translate(1578.485 -2553.721)" fill="#fff"/>
  <path id="Trazado_81" data-name="Trazado 81" d="M-1531.156,2652.881v2.019h-.652v-5h1.269a1.446,1.446,0,0,1,1.02.3,1.134,1.134,0,0,1,.311.858v.561a1.083,1.083,0,0,1-.154.61.913.913,0,0,1-.449.343.712.712,0,0,1,.418.312,1.237,1.237,0,0,1,.129.62v1.1a.377.377,0,0,0,.035.172.443.443,0,0,0,.1.123h-.729a.269.269,0,0,1-.063-.126.809.809,0,0,1-.02-.183v-1.065a.779.779,0,0,0-.126-.487.622.622,0,0,0-.5-.158Zm0-2.4v1.822h.6a.66.66,0,0,0,.522-.182.794.794,0,0,0,.158-.533v-.47a.64.64,0,0,0-.162-.483.754.754,0,0,0-.533-.154Z" transform="translate(1578.485 -2553.721)" fill="#fff"/>
  <path id="Trazado_82" data-name="Trazado 82" d="M-1525.767,2650.513v4.387h-.659v-4.387h-.9v-.61h2.467v.61Z" transform="translate(1578.485 -2553.721)" fill="#fff"/>
  <path id="Trazado_83" data-name="Trazado 83" d="M-1519.334,2652.881v2.019h-.652v-5h1.269a1.446,1.446,0,0,1,1.02.3,1.134,1.134,0,0,1,.311.858v.561a1.083,1.083,0,0,1-.154.61.908.908,0,0,1-.449.343.712.712,0,0,1,.418.312,1.235,1.235,0,0,1,.13.62v1.1a.376.376,0,0,0,.034.172.43.43,0,0,0,.1.123h-.729a.26.26,0,0,1-.063-.126.756.756,0,0,1-.021-.183v-1.065a.779.779,0,0,0-.126-.487.62.62,0,0,0-.5-.158Zm0-2.4v1.822h.6a.659.659,0,0,0,.522-.182.794.794,0,0,0,.158-.533v-.47a.64.64,0,0,0-.162-.483.751.751,0,0,0-.532-.154Z" transform="translate(1578.485 -2553.721)" fill="#fff"/>
  <path id="Trazado_84" data-name="Trazado 84" d="M-1512.915,2654.9h-2.313v-5h2.243v.6h-1.591v1.556h1.381v.609h-1.381v1.619h1.661Z" transform="translate(1578.485 -2553.721)" fill="#fff"/>
  <path id="Trazado_85" data-name="Trazado 85" d="M-1508.983,2653.968h-1.318l-.2.932h-.666l1.17-5h.666l1.213,5h-.666Zm-1.184-.617h1.044l-.47-2.131-.063-.728-.063.728Z" transform="translate(1578.485 -2553.721)" fill="#fff"/>
  <path id="Trazado_86" data-name="Trazado 86" d="M-1506.166,2654.9v-5h.659v4.366H-1504v.631Z" transform="translate(1578.485 -2553.721)" fill="#fff"/>
  <path id="Trazado_87" data-name="Trazado 87" d="M-1496.762,2654.9h-2.313v-5h2.243v.6h-1.591v1.556h1.381v.609h-1.381v1.619h1.661Z" transform="translate(1578.485 -2553.721)" fill="#fff"/>
  <path id="Trazado_88" data-name="Trazado 88" d="M-1494.593,2654.626a1.38,1.38,0,0,1-.3-.96v-.631h.686v.617a.81.81,0,0,0,.154.522.655.655,0,0,0,.54.193.582.582,0,0,0,.49-.189.737.737,0,0,0,.147-.47v-.2a.8.8,0,0,0-.031-.231.6.6,0,0,0-.094-.189,1.053,1.053,0,0,0-.333-.284q-.207-.115-.438-.228c-.084-.042-.168-.086-.253-.133s-.165-.1-.245-.148a1.343,1.343,0,0,1-.4-.409,1.2,1.2,0,0,1-.157-.649v-.161a1.474,1.474,0,0,1,.034-.322,1.591,1.591,0,0,1,.1-.294,1.007,1.007,0,0,1,.413-.445,1.412,1.412,0,0,1,.722-.165,1.252,1.252,0,0,1,.974.329,1.207,1.207,0,0,1,.294.834v.547h-.658v-.5a.7.7,0,0,0-.144-.473.6.6,0,0,0-.473-.165.536.536,0,0,0-.463.193.8.8,0,0,0-.14.481v.111a.766.766,0,0,0,.032.228.6.6,0,0,0,.094.186,1.134,1.134,0,0,0,.333.28q.207.12.431.232c.085.041.168.086.252.133s.166.095.246.147a1.367,1.367,0,0,1,.4.406,1.18,1.18,0,0,1,.158.645v.259a1.243,1.243,0,0,1-.337.9,1.267,1.267,0,0,1-.953.346,1.405,1.405,0,0,1-1.076-.336" transform="translate(1578.485 -2553.721)" fill="#fff"/>
  <path id="Trazado_89" data-name="Trazado 89" d="M-1488.871,2650.513v4.387h-.659v-4.387h-.9v-.61h2.467v.61Z" transform="translate(1578.485 -2553.721)" fill="#fff"/>
  <path id="Trazado_90" data-name="Trazado 90" d="M-1484.113,2653.968h-1.317l-.2.932h-.665l1.17-5h.666l1.212,5h-.665Zm-1.184-.617h1.044l-.469-2.131-.063-.728-.063.728Z" transform="translate(1578.485 -2553.721)" fill="#fff"/>
  <path id="Trazado_91" data-name="Trazado 91" d="M-1480.013,2650.513v4.387h-.659v-4.387h-.9v-.61h2.467v.61Z" transform="translate(1578.485 -2553.721)" fill="#fff"/>
  <path id="Trazado_92" data-name="Trazado 92" d="M-1474.82,2654.9h-2.313v-5h2.243v.6h-1.591v1.556h1.381v.609h-1.381v1.619h1.661Z" transform="translate(1578.485 -2553.721)" fill="#fff"/>
  <path id="Trazado_93" data-name="Trazado 93" d="M-1566.356,2604.974V2598.9l12.492-27.347h-11.7v-6.921h19.638v6.3l-12.154,27.009h12.323v7.034Z" transform="translate(1578.485 -2553.721)" fill="#fff"/>
  <path id="Trazado_94" data-name="Trazado 94" d="M-1501.025,2604.976h-6.583v-40.345h6.471l9.284,22.733,1.406,4.558-.394-5.458v-21.833h6.583v40.345h-6.3l-9.51-22.9-1.407-4.839.45,6.021Z" transform="translate(1578.485 -2553.721)" fill="#fff"/>
  <path id="Trazado_95" data-name="Trazado 95" d="M-1463.327,2599.011h-8.553l-1.125,5.965h-7.259l8.947-40.345h7.259l9.171,40.345h-7.258Zm-7.315-6.358h6.077l-2.644-13.448-.451-5.628-.45,5.628Z" transform="translate(1578.485 -2553.721)" fill="#fff"/>
  <path id="Trazado_96" data-name="Trazado 96" d="M-1526.719,2561.694l-14.115,10.64v32.642h28.23v-32.642Zm7.577,36.248H-1534.3v-21.274l7.577-5.884,7.577,5.884Z" transform="translate(1578.485 -2553.721)" fill="#fff"/>
</svg>
