<svg id="Grupo_70" data-name="Grupo 70" xmlns="http://www.w3.org/2000/svg" width="19.396" height="26.423" viewBox="0 0 19.396 26.423">
  <path id="Trazado_56" data-name="Trazado 56" d="M-2315.051,2615.994a9.794,9.794,0,0,1,7.849-9.406,9.72,9.72,0,0,1,11.391,7.625,9.052,9.052,0,0,1-.671,5.363,38.877,38.877,0,0,1-3.935,7.067c-1.338,1.946-2.752,3.841-4.145,5.749a.872.872,0,0,1-1.485.04,73.233,73.233,0,0,1-6.827-10.159,19.148,19.148,0,0,1-1.923-4.684C-2314.92,2617.066-2314.968,2616.526-2315.051,2615.994Zm9.742-4.306a3.524,3.524,0,0,0-3.531,3.53,3.527,3.527,0,0,0,3.523,3.511,3.528,3.528,0,0,0,3.517-3.516A3.525,3.525,0,0,0-2305.309,2611.688Z" transform="translate(2315.051 -2606.404)" fill="#0b4461"/>
</svg>
