<svg xmlns="http://www.w3.org/2000/svg" viewBox="0 0 58.08 61.99"><defs><style>.cls-1{fill:#47b5ff;}</style></defs><g id="Capa_2" data-name="Capa 2"><g id="Capa_1-2" data-name="Capa 1"><g id="Grupo_796" data-name="Grupo 796"><path id="Trazado_484" data-name="Trazado 484" class="cls-1" d="M39.2,0a3.54,3.54,0,0,1,2.27,1.67A18.6,18.6,0,0,1,42.18,4h6.65A4.91,4.91,0,0,1,54,9.18c0,8.56,0,17.11,0,25.67a1.92,1.92,0,0,0,.39,1.08C58.1,40.69,59.09,46,57,51.59A15.22,15.22,0,0,1,44.68,61.76a15.81,15.81,0,0,1-17.2-9.27.74.74,0,0,0-.8-.53Q19,52,11.36,52c-.2,0-.4,0-.6,0a.85.85,0,0,1-.87-.83.88.88,0,0,1,.79-1h0c.2,0,.4,0,.6,0H26.61L26.2,48H6.75c-1.67,0-3.37.17-4.81-1a2.93,2.93,0,0,0,2.65,3.21h.14c.73,0,1.45,0,2.18,0S8,50.5,8.05,51,7.64,52,6.93,52a18.79,18.79,0,0,1-2.9-.1,4.73,4.73,0,0,1-4-4.59C0,45.42,0,43.58,0,41.75V27.27c0-1,.25-1.36.89-1.37s.93.41.93,1.4V42.8a3.11,3.11,0,0,0,2.89,3.32H26.09a16.17,16.17,0,0,1,3.62-10.2,2.06,2.06,0,0,1-1.6-2.31c0-.51,0-1,0-1.51a1.9,1.9,0,0,1,1.79-2,.88.88,0,0,1,.23,0c.42,0,.85,0,1.27,0,1.76,0,2.24.38,2.62,2.15a16,16,0,0,1,18.1,1.4V19.92H1.83v2.77c0,.92-.29,1.37-.9,1.39S0,23.64,0,22.72V9.28A5,5,0,0,1,4.59,4a6.12,6.12,0,0,1,.74,0h6.73a6.46,6.46,0,0,1,0-.88A3.36,3.36,0,0,1,14.28.22L14.83,0H16l.22.1a3.38,3.38,0,0,1,2.61,3.36,4.73,4.73,0,0,0,0,.52H35.09c0-.26,0-.5,0-.74A3.33,3.33,0,0,1,36.77.5,10.57,10.57,0,0,1,37.85,0ZM18.92,8h.61a3.25,3.25,0,0,1,.54,0,.9.9,0,0,1,.82,1,.85.85,0,0,1-.87.83,4.45,4.45,0,0,1-.73,0,1,1,0,0,0-1,.53,3.3,3.3,0,0,1-4.56,1,3.26,3.26,0,0,1-.78-.7,1.74,1.74,0,0,0-1.8-.8H11A.9.9,0,0,1,10.06,9v0A.91.91,0,0,1,11,8h0c.33,0,.67,0,1,0V5.85l-.5,0H5.1A3.09,3.09,0,0,0,1.85,8.75a1.5,1.5,0,0,0,0,.3c0,1.45,0,2.91,0,4.36,0,.2,0,.39,0,.59H52.19c0-1.63,0-3.23,0-4.82a3.12,3.12,0,0,0-2.85-3.36,4.34,4.34,0,0,0-.51,0H42V7.67c0,.1,0,.19,0,.36.39,0,.75,0,1.1,0a.89.89,0,0,1,.86.91h0a.86.86,0,0,1-.85.88h-.76a.93.93,0,0,0-1,.49,3.32,3.32,0,0,1-4.57,1,3.4,3.4,0,0,1-.88-.81,1.45,1.45,0,0,0-1.54-.7h-.24c-.62,0-1-.38-1-.9A.91.91,0,0,1,34.08,8h1V5.87H18.92ZM56.2,46A14.14,14.14,0,1,0,42.09,60.19h0A14.12,14.12,0,0,0,56.2,46Zm-4-30.14H1.88V18H52.16Zm-12-10c0-.78,0-1.57,0-2.35a1.63,1.63,0,0,0-1.51-1.74h0A1.6,1.6,0,0,0,37,3.36a.81.81,0,0,0,0,.16q0,2.42,0,4.83A1.59,1.59,0,0,0,38.49,10h.08a1.63,1.63,0,0,0,1.59-1.68v0c0-.8,0-1.6,0-2.41Zm-23.09,0h0c0-.83,0-1.65,0-2.48a1.58,1.58,0,0,0-1.52-1.63h-.06a1.59,1.59,0,0,0-1.6,1.58v.1q0,2.42,0,4.83a1.59,1.59,0,0,0,3.18.22,1.33,1.33,0,0,0,0-.2c0-.81,0-1.61,0-2.42ZM29.94,32v.84c0,.32,0,.64,0,1,0,.1.09.3.13.3a4.21,4.21,0,0,0,1.62-.17c.81-.42.32-1.24.45-1.94Z"/><path id="Trazado_485" data-name="Trazado 485" class="cls-1" d="M31.05,27.88c-.4,0-.81,0-1.21,0a1.76,1.76,0,0,1-1.68-1.6,17.94,17.94,0,0,1,0-2.54,1.79,1.79,0,0,1,1.77-1.66c.73,0,1.45,0,2.18,0a1.85,1.85,0,0,1,1.83,1.81,16.74,16.74,0,0,1,0,2.24,1.84,1.84,0,0,1-1.86,1.77h-1Zm1.05-1.83V23.88c-.64,0-1.24,0-1.84,0a.45.45,0,0,0-.31.32c0,.6,0,1.2,0,1.83Z"/><path id="Trazado_486" data-name="Trazado 486" class="cls-1" d="M17.89,25c.17,2.33-.74,3-2.89,2.88-.4,0-.81,0-1.21,0a1.84,1.84,0,0,1-1.72-1.79c0-.72,0-1.45,0-2.17a1.88,1.88,0,0,1,1.8-1.85c.75,0,1.49,0,2.24,0a1.87,1.87,0,0,1,1.78,1.86C17.9,24.3,17.89,24.66,17.89,25Zm-1.87,1V23.93H13.91v2.12Z"/><path id="Trazado_487" data-name="Trazado 487" class="cls-1" d="M50,25c0,.32,0,.65,0,1a1.83,1.83,0,0,1-1.76,1.91h-.07c-.73,0-1.45,0-2.18,0A1.84,1.84,0,0,1,44.17,26h0c0-.68,0-1.37,0-2.05A1.88,1.88,0,0,1,46,22.08a20.92,20.92,0,0,1,2.24,0A1.87,1.87,0,0,1,50,24C50,24.31,50,24.66,50,25Zm-1.84-1.08H46V26h2.13Z"/><path id="Trazado_488" data-name="Trazado 488" class="cls-1" d="M7,38.13c.34,0,.69,0,1,0A1.86,1.86,0,0,1,9.86,40a19.64,19.64,0,0,1,0,2.17A1.87,1.87,0,0,1,8,44H5.92A1.87,1.87,0,0,1,4.05,42.1v0c0-.66,0-1.33,0-2a1.85,1.85,0,0,1,1.76-1.94H6c.32,0,.64,0,1,0ZM8,42.1V40H5.9V42.1Z"/><path id="Trazado_489" data-name="Trazado 489" class="cls-1" d="M36.15,24.94V24a1.89,1.89,0,0,1,1.79-2h.13c.67,0,1.33,0,2,0A1.9,1.9,0,0,1,42,23.94V24c0,.66,0,1.33,0,2a1.85,1.85,0,0,1-1.82,1.89h0c-.68,0-1.37,0-2.05,0a1.83,1.83,0,0,1-1.9-1.78V24.94Zm4-1H38V26h2.13Z"/><path id="Trazado_490" data-name="Trazado 490" class="cls-1" d="M25.91,41.07c0,.32,0,.65,0,1A1.87,1.87,0,0,1,24.08,44H22a1.9,1.9,0,0,1-1.92-1.86h0c0-.7,0-1.41,0-2.12A1.86,1.86,0,0,1,22,38.14c.7,0,1.41,0,2.11,0A1.82,1.82,0,0,1,25.9,40v0c0,.37,0,.73,0,1.09Zm-4-1.09v2.11H24V40Z"/><path id="Trazado_491" data-name="Trazado 491" class="cls-1" d="M12.06,33c-.16-2.27.69-3,2.9-2.87.4,0,.81,0,1.21,0a1.82,1.82,0,0,1,1.71,1.78c0,.7,0,1.41,0,2.12a1.85,1.85,0,0,1-1.8,1.9h0a19.64,19.64,0,0,1-2.17,0A1.87,1.87,0,0,1,12.07,34h0C12.06,33.65,12.07,33.31,12.06,33Zm4,1.1V32H13.92v2.1Z"/><path id="Trazado_492" data-name="Trazado 492" class="cls-1" d="M7,27.89H5.89a1.84,1.84,0,0,1-1.84-1.83v0c0-.7,0-1.4,0-2.11a1.85,1.85,0,0,1,1.79-1.84c.73,0,1.46,0,2.18,0a1.87,1.87,0,0,1,1.85,1.86c0,.65,0,1.29,0,1.94a1.9,1.9,0,0,1-1.77,2H7.88c-.3,0-.61,0-.91,0ZM8,26V23.93H5.92V26Z"/><path id="Trazado_493" data-name="Trazado 493" class="cls-1" d="M17.89,41.05c0,.34,0,.68,0,1A1.88,1.88,0,0,1,16,44h0c-.69,0-1.37,0-2.06,0a1.88,1.88,0,0,1-1.87-1.89h0c0-.69,0-1.37,0-2.06a1.84,1.84,0,0,1,1.83-1.86c.68,0,1.37,0,2.06,0a1.86,1.86,0,0,1,1.93,1.79v1.13ZM16,40H13.93v2.12H16Z"/><path id="Trazado_494" data-name="Trazado 494" class="cls-1" d="M6.94,30.1c.34,0,.68,0,1,0A1.89,1.89,0,0,1,9.87,32V32c0,.67,0,1.33,0,2A1.89,1.89,0,0,1,8,35.92H8c-.68,0-1.37,0-2,0a1.86,1.86,0,0,1-1.89-1.83.17.17,0,0,1,0-.1c0-.65,0-1.29,0-1.94A1.85,1.85,0,0,1,5.79,30.1H6.94ZM5.9,32v2.1H8V32Z"/><path id="Trazado_495" data-name="Trazado 495" class="cls-1" d="M25.91,33.05c0,.3,0,.6,0,.91a1.88,1.88,0,0,1-1.78,2H22.06a1.92,1.92,0,0,1-2-1.84v-.16c0-.62,0-1.24,0-1.87a1.88,1.88,0,0,1,1.81-2H22c.65,0,1.29,0,1.94,0a1.85,1.85,0,0,1,1.95,1.74,1,1,0,0,1,0,.24C25.92,32.41,25.91,32.73,25.91,33.05Zm-1.86,1V32H21.94v2.1Z"/><path id="Trazado_496" data-name="Trazado 496" class="cls-1" d="M25.9,25c0,.38,0,.77,0,1.15a1.78,1.78,0,0,1-1.7,1.72c-.76,0-1.53,0-2.3,0a1.84,1.84,0,0,1-1.81-1.76,20.92,20.92,0,0,1,0-2.24A1.88,1.88,0,0,1,22,22.07c.65,0,1.29,0,1.94,0a1.88,1.88,0,0,1,2,1.78V24c0,.32,0,.64,0,1Zm-4,1H24v-2.1H21.92Z"/><path id="Trazado_497" data-name="Trazado 497" class="cls-1" d="M42.1,34.12A11.94,11.94,0,1,1,30.12,46h0A11.91,11.91,0,0,1,42.06,34.12ZM52.19,46.05a10.1,10.1,0,1,0,0,.07v-.07Z"/><path id="Trazado_498" data-name="Trazado 498" class="cls-1" d="M43,41c0,.62,0,1.25,0,1.87a1,1,0,0,0,.32.54c.45.48.91.94,1.39,1.38a1.23,1.23,0,0,0,.59.35c.58,0,1.17,0,1.75,0A.89.89,0,0,1,48,46v.06a.91.91,0,0,1-.91.91h0c-.58,0-1.16,0-1.75,0a.6.6,0,0,0-.65.39,2.87,2.87,0,0,1-3.11,1.57,2.94,2.94,0,0,1-2.33-2.34,2.86,2.86,0,0,1,1.56-3.12.59.59,0,0,0,.39-.64c0-1.13,0-2.26,0-3.39a2.45,2.45,0,0,1,0-.54.85.85,0,0,1,.94-.75h0a.82.82,0,0,1,.84.8V39c0,.66,0,1.33,0,2Zm-.88,6.13a1.09,1.09,0,0,0,1.08-1.07A1.14,1.14,0,0,0,42.05,45,1.1,1.1,0,0,0,41,46.09h0a1.05,1.05,0,0,0,1.07,1Z"/></g></g></g></svg>