<svg xmlns="http://www.w3.org/2000/svg" viewBox="0 0 77.58 58.89"><defs><style>.cls-1{fill:#47b5ff;}</style></defs><g id="Capa_2" data-name="Capa 2"><g id="Capa_1-2" data-name="Capa 1"><path id="Trazado_454" data-name="Trazado 454" class="cls-1" d="M63.7,56.39l-1-10.13a8.77,8.77,0,0,0,7.39-8.64V21.35h-5V19.62a4.5,4.5,0,0,0-2.44-4,7.53,7.53,0,0,0,2.44-5.52V7.59a7.51,7.51,0,1,0-15-.16v2.66a7.53,7.53,0,0,0,5,7.05l-6.72,6.71h-7a5,5,0,0,0-3.6-4.48L32.53,17.9V15.67A7.48,7.48,0,0,0,35,10.09V7.59a7.51,7.51,0,1,0-15,0v2.5a7.48,7.48,0,0,0,2.5,5.58v2.24l-5.13,1.46a5,5,0,0,0-3.63,4.81v4.68h-5v7.51h2.5v20H0v2.5H77.58v-2.5Zm-11.15-20V30.63l8.87-8.87a3.89,3.89,0,0,0,1.11-2.4,2.3,2.3,0,0,1,0,.26V35.11a3.75,3.75,0,0,1-3.75,3.76h-10v-2.5Zm-3.75,10h6.37l1,10H48.8Zm8.89,0h2.49l1,10H58.69Zm7.38-11.27V23.85h2.5V37.62a6.27,6.27,0,0,1-6.26,6.25H48.8v-2.5h10a6.25,6.25,0,0,0,6.25-6.25m-12.51-25V7.59a5,5,0,0,1,10-.07v2.57a5,5,0,0,1-10,0M49.31,26.36,57.66,18a1.4,1.4,0,1,1,2,2h0l-8.87,8.87H37.53a1.25,1.25,0,0,1,0-2.5ZM22.51,7.59a5,5,0,0,1,10,0v2.5a5,5,0,0,1-10,0Zm5,10a7.35,7.35,0,0,0,2.5-.44V18.5a2.76,2.76,0,0,1-3.67,1.34A2.79,2.79,0,0,1,25,18.5V17.16a7.35,7.35,0,0,0,2.5.44M16.26,24.18a2.51,2.51,0,0,1,1.81-2.4l5.16-1.48a5.15,5.15,0,0,0,7.15,1.44,5.3,5.3,0,0,0,1.43-1.44L37,21.78a2.5,2.5,0,0,1,1.76,2.07h-1.2a3.78,3.78,0,0,0-3.76,3.76A4.06,4.06,0,0,0,34,28.86H16.27Zm-5,7.18H50v2.5H11.25Zm2.5,10h3.76v-2.5H13.75v-2.5H46.29v2.5H20v2.5H46.29v15h-3l-2.5-5H19.25l-2.5,5h-3Zm26.76,15h-21l1.25-2.5H39.26Z"/></g></g></svg>