<svg id="Grupo_69" data-name="Grupo 69" xmlns="http://www.w3.org/2000/svg" width="23" height="17.236" viewBox="0 0 23 17.236">
  <path id="Trazado_54" data-name="Trazado 54" d="M-2316.093,2736.9v-11.859c.077.043.157.082.231.131l9.207,6.138a3.57,3.57,0,0,0,4.124,0q4.575-3.051,9.151-6.1c.084-.056.171-.109.279-.178,0,.074.007.116.007.159q0,5.682-.005,11.365a2.618,2.618,0,0,1-.124.77,2.471,2.471,0,0,1-2.489,1.721h-16.8c-.359,0-.719.006-1.078,0a2.487,2.487,0,0,1-2.38-1.722C-2316.017,2737.182-2316.053,2737.039-2316.093,2736.9Z" transform="translate(2316.093 -2721.811)" fill="#0b4461"/>
  <path id="Trazado_55" data-name="Trazado 55" d="M-2293.238,2723.492l-2,1.337q-4.044,2.694-8.086,5.39a2.219,2.219,0,0,1-2.528,0l-9.9-6.6c-.062-.041-.123-.084-.2-.138a2.4,2.4,0,0,1,1.571-1.537,2.877,2.877,0,0,1,.86-.129q8.926-.01,17.854,0A2.473,2.473,0,0,1-2293.238,2723.492Z" transform="translate(2316.093 -2721.811)" fill="#0b4461"/>
</svg>
