<svg id="Grupo_68" data-name="Grupo 68" xmlns="http://www.w3.org/2000/svg" width="20.973" height="20.935" viewBox="0 0 20.973 20.935">
  <path id="Trazado_53" data-name="Trazado 53" d="M-2304.739,2691.827h-1.147c-.3-.033-.6-.059-.892-.1a10.265,10.265,0,0,1-4.15-1.515.42.42,0,0,0-.4-.055c-1.2.39-2.4.77-3.6,1.153l-.225.069c.419-1.245.822-2.45,1.232-3.653a.421.421,0,0,0-.055-.429,10.085,10.085,0,0,1-1.7-4.134c-.075-.434-.111-.875-.165-1.312v-1.1a1.369,1.369,0,0,0,.035-.176,9.845,9.845,0,0,1,1.443-4.549,10.289,10.289,0,0,1,8.569-5.112,9.842,9.842,0,0,1,5.784,1.455,10.314,10.314,0,0,1,4.979,7.194c.073.392.11.792.163,1.188v1.227c-.016.147-.034.294-.05.441a10.33,10.33,0,0,1-2.619,5.909,10.292,10.292,0,0,1-6.011,3.341C-2303.941,2691.735-2304.341,2691.774-2304.739,2691.827Zm2.768-4.569a6.88,6.88,0,0,0,.911-.18,2.474,2.474,0,0,0,2.026-2.591.437.437,0,0,0-.275-.453c-.775-.368-1.545-.747-2.323-1.109a.633.633,0,0,0-.918.249c-.2.273-.4.549-.613.817a.712.712,0,0,1-1.014.262,8.267,8.267,0,0,1-3.977-3.478c-.2-.329-.192-.455.062-.747.2-.232.415-.453.6-.693a.681.681,0,0,0,.2-.708q-.554-1.329-1.126-2.647a.43.43,0,0,0-.245-.225,1.756,1.756,0,0,0-1.584.211,3.263,3.263,0,0,0-1.148,3.221,4.964,4.964,0,0,0,.737,1.891,16.469,16.469,0,0,0,2.883,3.485,11.027,11.027,0,0,0,4.44,2.4C-2302.871,2687.09-2302.4,2687.165-2301.971,2687.258Z" transform="translate(2315.84 -2670.892)" fill="#0b4461"/>
</svg>
