<svg xmlns="http://www.w3.org/2000/svg" viewBox="0 0 140.05 85"><defs><style>.cls-1{fill:#fff;}.cls-2{fill:#0b4461;}</style></defs><g id="Capa_2" data-name="Capa 2"><g id="Capa_1-2" data-name="Capa 1"><path class="cls-1" d="M6.54,84.78V69.37h3.88a4.18,4.18,0,0,1,3.06.89,3.35,3.35,0,0,1,.87,2.45v1.08a3.71,3.71,0,0,1-.47,2,2.57,2.57,0,0,1-1.51,1.09,2.71,2.71,0,0,1,1.66,1,3.26,3.26,0,0,1,.51,1.9v1.37a4.06,4.06,0,0,1-.81,2.68,3.77,3.77,0,0,1-3,1ZM8.06,70.71V76.2h2.3a2.53,2.53,0,0,0,1.89-.59,2.6,2.6,0,0,0,.56-1.84v-.93a2.14,2.14,0,0,0-.56-1.59,2.63,2.63,0,0,0-1.87-.54Zm0,6.83V83.4h2.49a2.53,2.53,0,0,0,1.9-.56A2.59,2.59,0,0,0,13,81.05V79.86a2.35,2.35,0,0,0-.59-1.73,2.73,2.73,0,0,0-2-.59Z"/><path class="cls-1" d="M28,78.3v6.48H26.52V69.37h3.89a4.16,4.16,0,0,1,3,.93A3.61,3.61,0,0,1,34.38,73v1.54a3.41,3.41,0,0,1-.51,2,2.9,2.9,0,0,1-1.49,1.09,2.24,2.24,0,0,1,1.4,1,3.79,3.79,0,0,1,.42,2v3.36a1.25,1.25,0,0,0,.1.53,1.41,1.41,0,0,0,.27.4H32.86a.75.75,0,0,1-.19-.4,3.31,3.31,0,0,1-.05-.55v-3.3a2.44,2.44,0,0,0-.5-1.71,2.47,2.47,0,0,0-1.82-.52Zm0-7.57v6.2h2.28a2.19,2.19,0,0,0,2.49-2.49V73.08a2.44,2.44,0,0,0-.56-1.75,2.54,2.54,0,0,0-1.91-.6Z"/><path class="cls-1" d="M47.34,83.84a5.09,5.09,0,0,1-1.12-3.63V74.07a5.22,5.22,0,0,1,1.13-3.62,4.71,4.71,0,0,1,6.35,0,5.26,5.26,0,0,1,1.12,3.62v6.14a5.07,5.07,0,0,1-1.13,3.62A4.23,4.23,0,0,1,50.5,85a4.21,4.21,0,0,1-3.16-1.16m5.2-1.15a4.11,4.11,0,0,0,.67-2.57v-6a4.46,4.46,0,0,0-.65-2.62,2.77,2.77,0,0,0-4.1,0,4.42,4.42,0,0,0-.65,2.61v6a4.18,4.18,0,0,0,.66,2.57,2.84,2.84,0,0,0,4.07,0"/><polygon class="cls-1" points="70.55 76 68.53 79.06 68.53 84.78 67.03 84.78 67.03 69.37 68.53 69.37 68.53 76.7 68.49 77.28 68.57 77.09 73.52 69.37 75.28 69.37 71.66 74.98 75.6 84.78 73.91 84.78 70.77 76.72 70.55 76"/><polygon class="cls-1" points="94.18 84.78 87.13 84.78 87.13 69.37 93.98 69.37 93.98 70.78 88.64 70.78 88.64 76.15 93.27 76.15 93.27 77.58 88.64 77.58 88.64 83.33 94.18 83.33 94.18 84.78"/><path class="cls-1" d="M107.48,78.3v6.48H106V69.37h3.88a4.17,4.17,0,0,1,3,.93,3.61,3.61,0,0,1,.93,2.67v1.54a3.41,3.41,0,0,1-.51,2,2.9,2.9,0,0,1-1.49,1.09,2.24,2.24,0,0,1,1.4,1,3.79,3.79,0,0,1,.42,2v3.36a1.25,1.25,0,0,0,.1.53,1.09,1.09,0,0,0,.27.4H112.3a.75.75,0,0,1-.19-.4,3.31,3.31,0,0,1,0-.55v-3.3a2.44,2.44,0,0,0-.5-1.71,2.47,2.47,0,0,0-1.82-.52Zm0-7.57v6.2h2.28a2.2,2.2,0,0,0,2.49-2.49V73.08a2.44,2.44,0,0,0-.56-1.75,2.54,2.54,0,0,0-1.91-.6Z"/><path class="cls-1" d="M126.3,84a4,4,0,0,1-1-2.93V79.25h1.6V81a2.67,2.67,0,0,0,.63,1.88,2.63,2.63,0,0,0,2,.68,2.3,2.3,0,0,0,1.85-.68,2.51,2.51,0,0,0,.58-1.68v-.68a2.88,2.88,0,0,0-.11-.81,1.86,1.86,0,0,0-.33-.64,3.39,3.39,0,0,0-1.13-.94c-.46-.25-.95-.5-1.47-.73-.28-.13-.55-.26-.81-.4l-.8-.42a4.26,4.26,0,0,1-1.28-1.22,3.44,3.44,0,0,1-.5-2v-.54a3.48,3.48,0,0,1,3.85-3.66,3.93,3.93,0,0,1,2.91,1,3.51,3.51,0,0,1,.95,2.57v1.54h-1.54V72.84a2,2,0,0,0-2.32-2.3,2.14,2.14,0,0,0-1.73.67,2.53,2.53,0,0,0-.58,1.69v.46a2.63,2.63,0,0,0,.11.76,2.11,2.11,0,0,0,.33.63,3.71,3.71,0,0,0,1.12.88q.67.38,1.44.72l.82.4c.28.14.55.29.81.44A4.13,4.13,0,0,1,133,78.43a3.52,3.52,0,0,1,.51,2v.79a3.74,3.74,0,0,1-1,2.69A3.87,3.87,0,0,1,129.55,85a4.38,4.38,0,0,1-3.25-1"/><rect class="cls-1" width="140.05" height="63.15"/><polygon class="cls-2" points="12.52 52.84 12.52 46.58 25.41 18.38 13.33 18.38 13.33 11.25 33.59 11.25 33.59 17.74 21.05 45.59 33.77 45.59 33.77 52.84 12.52 52.84"/><polygon class="cls-2" points="79.93 52.84 73.14 52.84 73.14 11.25 79.81 11.25 89.39 34.68 90.84 39.38 90.44 33.76 90.44 11.25 97.23 11.25 97.23 52.84 90.73 52.84 80.92 29.23 79.47 24.24 79.93 30.45 79.93 52.84"/><path class="cls-2" d="M118.83,46.69H110l-1.16,6.15h-7.49l9.23-41.59h7.49l9.47,41.59h-7.49Zm-7.55-6.55h6.27l-2.73-13.87-.46-5.8-.47,5.8Z"/><path class="cls-2" d="M53.42,8.22l-14.57,11V52.84H68V19.19Zm7.81,37.37H45.6V23.66l7.82-6.07,7.81,6.07Z"/></g></g></svg>