<svg xmlns="http://www.w3.org/2000/svg" viewBox="0 0 52 52"><defs><style>.cls-1{fill:#59a4d9;}.cls-2{fill:#fff;}</style></defs><g id="Capa_2" data-name="Capa 2"><g id="Capa_1-2" data-name="Capa 1"><circle class="cls-1" cx="26" cy="26" r="26"/><path class="cls-2" d="M14,32.76V20.37a1.49,1.49,0,0,1,.24.14l9.62,6.41a3.73,3.73,0,0,0,4.3,0l9.56-6.37.29-.19a1.16,1.16,0,0,1,0,.17V32.4a2.68,2.68,0,0,1-.13.8,2.58,2.58,0,0,1-2.6,1.8H16.6a2.59,2.59,0,0,1-2.48-1.8C14.07,33.05,14,32.9,14,32.76Z"/><path class="cls-2" d="M37.86,18.75l-2.09,1.4-8.45,5.63a2.32,2.32,0,0,1-2.64,0L14.35,18.89l-.22-.15a2.53,2.53,0,0,1,1.65-1.6,3,3,0,0,1,.89-.14H35.32A2.59,2.59,0,0,1,37.86,18.75Z"/></g></g></svg>