<svg xmlns="http://www.w3.org/2000/svg" viewBox="0 0 52 52"><defs><style>.cls-1{fill:#59a4d9;}.cls-2{fill:#fff;}</style></defs><g id="Capa_2" data-name="Capa 2"><g id="Capa_1-2" data-name="Capa 1"><circle class="cls-1" cx="26" cy="26" r="26"/><path class="cls-2" d="M26.67,37.48H25.42l-1-.11a11.36,11.36,0,0,1-4.55-1.66.44.44,0,0,0-.44-.06l-3.94,1.26-.25.08c.46-1.37.9-2.69,1.35-4a.47.47,0,0,0-.06-.47A11.16,11.16,0,0,1,14.68,28c-.08-.48-.12-1-.18-1.44V25.33c0-.07,0-.13,0-.2a10.86,10.86,0,0,1,1.58-5,11.29,11.29,0,0,1,9.4-5.61,10.75,10.75,0,0,1,6.34,1.6A11.27,11.27,0,0,1,37.32,24c.08.44.12.87.18,1.31v1.34l-.06.49A11.5,11.5,0,0,1,28,37.3C27.55,37.38,27.11,37.42,26.67,37.48Zm3-5a8,8,0,0,0,1-.2,2.72,2.72,0,0,0,2.22-2.84.48.48,0,0,0-.3-.5c-.85-.4-1.7-.82-2.55-1.21a.7.7,0,0,0-1,.27l-.67.9a.78.78,0,0,1-1.11.28,9.1,9.1,0,0,1-4.36-3.81.54.54,0,0,1,.07-.82c.22-.25.45-.5.66-.76a.74.74,0,0,0,.22-.78c-.4-1-.81-1.94-1.23-2.9a.51.51,0,0,0-.27-.25,2,2,0,0,0-1.74.23,3.59,3.59,0,0,0-1.26,3.54,5.6,5.6,0,0,0,.81,2.07,18.42,18.42,0,0,0,3.16,3.82,12.17,12.17,0,0,0,4.87,2.63C28.72,32.28,29.24,32.37,29.71,32.47Z"/></g></g></svg>